999
FreeCAD v1.2 44567 (Git)
  0
SECTION
  2
HEADER
  9
$ACADVER
  1
AC1014
  9
$ACADMAINTVER
 70
     9
  9
$DWGCODEPAGE
  3
ANSI_1252
  9
$TEXTSTYLE
  7
STANDARD
  9
$DIMSTYLE
  2
STANDARD
  9
$DIMTXSTY
  7
STANDARD
  9
$CMLSTYLE
  2
STANDARD
  9
$LUNITS
 70
2
  9
$INSUNITS
 70
4
  9
$PEXTMAX
 10
50
 20
50
 30
50
  9
$PEXTMIN
 10
0
 20
0
 30
0
  9
$HANDSEED
  5
FFFF
  0
ENDSEC
  0
SECTION
  2
CLASSES
  0
CLASS
  1
ACDBDICTIONARYWDFLT
  2
AcDbDictionaryWithDefault
  3
ObjectDBX Classes
 90
        0
280
     0
281
     0
  0
CLASS
  1
XRECORD
  2
AcDbXrecord
  3
ObjectDBX Classes
 90
        0
280
     0
281
     0
  0
CLASS
  1
LWPOLYLINE
  2
AcDbPolyline
  3
ObjectDBX Classes
 90
        0
280
     0
281
     1
  0
ENDSEC
  0
SECTION
  2
TABLES
  0
TABLE
  2
VPORT
  5
20
330
0
100
AcDbSymbolTable
 70
     1
  0
VPORT
  5
21
330
20
100
AcDbSymbolTableRecord
100
AcDbViewportTableRecord
  2
*ACTIVE
 70
     0
  0
ENDTAB
  0
TABLE
  2
LTYPE
  5
22
330
0
100
AcDbSymbolTable
 70
     1
  0
LTYPE
  5
23
330
21
100
AcDbSymbolTableRecord
100
AcDbLinetypeTableRecord
  2
BYBLOCK
 70
     0
  3

 72
    65
 73
     0
 40
0.0
  0
LTYPE
  5
24
330
21
100
AcDbSymbolTableRecord
100
AcDbLinetypeTableRecord
  2
BYLAYER
 70
     0
  3

 72
    65
 73
     0
 40
0.0
  0
LTYPE
  5
25
330
21
100
AcDbSymbolTableRecord
100
AcDbLinetypeTableRecord
  2
CONTINUOUS
 70
     0
  3
Solid line
 72
    65
 73
     0
 40
0.0
  0
ENDTAB
  0
TABLE
  2
LAYER
  5
A89
330
0
100
AcDbSymbolTable
 70
3
  0
LAYER
  5
A8A
330
A89
100
AcDbSymbolTableRecord
100
AcDbLayerTableRecord
  2
0
 70
   0
 62
   7
  6
CONTINUOUS
  0
LAYER
  5
A8B
330
A89
100
AcDbSymbolTableRecord
100
AcDbLayerTableRecord
  2
none
 70
    0
 62
    7
  6
CONTINUOUS
  0
LAYER
  5
A8C
330
A89
100
AcDbSymbolTableRecord
100
AcDbLayerTableRecord
  2
Sketch001
 70
    0
 62
    7
  6
CONTINUOUS
  0
ENDTAB
  0
TABLE
  2
STYLE
  5
70
330
0
100
AcDbSymbolTable
 70
     2
  0
STYLE
  5
71
330
70
100
AcDbSymbolTableRecord
100
AcDbTextStyleTableRecord
  2
STANDARD
 70
     0
 40
0.0
 41
1.0
 50
0.0
 71
     0
 42
2.5
  3
arial.ttf
  4

  0
STYLE
  5
72
330
70
100
AcDbSymbolTableRecord
100
AcDbTextStyleTableRecord
  2
ANNOTATIVE
 70
     0
 40
0.0
 41
1.0
 50
0.0
 71
     0
 42
2.5
  3
arial.ttf
  4

  0
ENDTAB
  0
TABLE
  2
VIEW
  5
73
330
0
100
AcDbSymbolTable
 70
     0
  0
ENDTAB
  0
TABLE
  2
UCS
  5
74
330
0
100
AcDbSymbolTable
 70
     0
  0
ENDTAB
  0
TABLE
  2
APPID
  5
75
330
0
100
AcDbSymbolTable
 70
     2
  0
APPID
  5
76
330
75
100
AcDbSymbolTableRecord
100
AcDbRegAppTableRecord
  2
ACAD
 70
     0
  0
APPID
  5
77
330
75
100
AcDbSymbolTableRecord
100
AcDbRegAppTableRecord
  2
ACADANNOTATIVE
 70
     0
  0
ENDTAB
  0
TABLE
  2
DIMSTYLE
  5
78
330
0
100
AcDbSymbolTable
 70
     2
  0
DIMSTYLE
105
79
330
78
100
AcDbSymbolTableRecord
100
AcDbDimStyleTableRecord
  2
STANDARD
 70
     0
  3

  4

  5

  6

  7

 40
0.0
 41
2.5
 42
0.625
 43
3.75
 44
1.25
 45
0.0
 46
0.0
 47
0.0
 48
0.0
140
2.5
141
2.5
142
0.0
143
0.03937007874016
144
1.0
145
0.0
146
1.0
147
0.625
 71
     0
 72
     0
 73
     0
 74
     0
 75
     0
 76
     0
 77
     1
 78
     8
170
     0
171
     3
172
     1
173
     0
174
     0
175
     0
176
     0
177
     0
178
     0
270
     2
271
     2
272
     2
273
     2
274
     3
340
71
275
     0
280
     0
281
     0
282
     0
283
     0
284
     8
285
     0
286
     0
287
     3
288
     0
  0
ENDTAB
  0
TABLE
  2
BLOCK_RECORD
  5
A01
330
0
100
AcDbSymbolTable
  70
5
  0
BLOCK_RECORD
  5
A02
330
A01
100
AcDbSymbolTableRecord
100
AcDbBlockTableRecord
  2
*MODEL_SPACE
  0
BLOCK_RECORD
  5
A03
330
A01
100
AcDbSymbolTableRecord
100
AcDbBlockTableRecord
  2
*PAPER_SPACE
  0
ENDTAB
  0
ENDSEC
  0
SECTION
  2
BLOCKS
  0
BLOCK
  5
A04
330
A02
100
AcDbEntity
  8
0
100
AcDbBlockBegin
  2
*MODEL_SPACE
 70
   0
 10
0
 20
0
 30
0
  3
*MODEL_SPACE
  1
 
  0
ENDBLK
  5
A05
330
A02
100
AcDbEntity
  8
0
100
AcDbBlockEnd
  0
BLOCK
  5
A06
330
A03
100
AcDbEntity
 67
1
  8
0
100
AcDbBlockBegin
  2
*PAPER_SPACE
 70
   0
 10
0
 20
0
 30
0
  3
*PAPER_SPACE
  1
 
  0
ENDBLK
  5
A07
330
A03
100
AcDbEntity
 67
    1
  8
0
100
AcDbBlockEnd
  0
ENDSEC
  0
SECTION
  2
ENTITIES
  0
ARC
  5
A08
330
A02
100
AcDbEntity
  8
Sketch001
100
AcDbCircle
 10
-807.390660000
 20
-561.144975000
 30
0.000000000
 40
703.653419977
100
AcDbArc
 50
51.153098994
 51
54.501808081
  0
LINE
  5
A09
330
A02
100
AcDbEntity
  8
Sketch001
100
AcDbLine
 10
-398.795117000
 20
11.723088070
 30
0.000000000
 11
-399.097195000
 21
15.916483000
 31
0.000000000
  0
LINE
  5
A0A
330
A02
100
AcDbEntity
  8
Sketch001
100
AcDbLine
 10
-399.097195000
 20
15.916483000
 30
0.000000000
 11
-401.819977000
 21
14.905077000
 31
0.000000000
  0
LINE
  5
A0B
330
A02
100
AcDbEntity
  8
Sketch001
100
AcDbLine
 10
-401.819977000
 20
14.905077000
 30
0.000000000
 11
-401.819977000
 21
21.783013000
 31
0.000000000
  0
LINE
  5
A0C
330
A02
100
AcDbEntity
  8
Sketch001
100
AcDbLine
 10
-401.819977000
 20
21.783013000
 30
0.000000000
 11
-268.615315000
 21
25.748857000
 31
0.000000000
  0
LINE
  5
A0D
330
A02
100
AcDbEntity
  8
Sketch001
100
AcDbLine
 10
-268.615315000
 20
25.748857000
 30
0.000000000
 11
-28.246992881
 21
100.405943240
 31
0.000000000
  0
ARC
  5
A0E
330
A02
100
AcDbEntity
  8
Sketch001
100
AcDbCircle
 10
207.963362000
 20
69.344555000
 30
0.000000000
 40
238.243870000
100
AcDbArc
 50
172.508653972
 51
-171.453111426
  0
LINE
  5
A0F
330
A02
100
AcDbEntity
  8
Sketch001
100
AcDbLine
 10
-27.634707591
 20
33.937053001
 30
0.000000000
 11
0.771225000
 21
34.287852000
 31
0.000000000
  0
LINE
  5
A10
330
A02
100
AcDbEntity
  8
Sketch001
100
AcDbLine
 10
0.771225000
 20
34.287852000
 30
0.000000000
 11
0.916582000
 21
36.965207000
 31
0.000000000
  0
LINE
  5
A11
330
A02
100
AcDbEntity
  8
Sketch001
100
AcDbLine
 10
0.916582000
 20
36.965207000
 30
0.000000000
 11
5.096135000
 21
36.965207000
 31
0.000000000
  0
LINE
  5
A12
330
A02
100
AcDbEntity
  8
Sketch001
100
AcDbLine
 10
5.096135000
 20
36.965207000
 30
0.000000000
 11
5.096135000
 21
32.857629705
 31
0.000000000
  0
LINE
  5
A13
330
A02
100
AcDbEntity
  8
Sketch001
100
AcDbLine
 10
5.096135000
 20
32.857629705
 30
0.000000000
 11
10.605696032
 21
32.857629705
 31
0.000000000
  0
ARC
  5
A14
330
A02
100
AcDbEntity
  8
Sketch001
100
AcDbCircle
 10
8.293620000
 20
38.562430000
 30
0.000000000
 40
6.155521260
100
AcDbArc
 50
-67.937973477
 51
-28.677590995
  0
LINE
  5
A15
330
A02
100
AcDbEntity
  8
Sketch001
100
AcDbLine
 10
13.694067580
 20
35.608516000
 30
0.000000000
 11
13.719329686
 21
39.841567973
 31
0.000000000
  0
ARC
  5
A16
330
A02
100
AcDbEntity
  8
Sketch001
100
AcDbCircle
 10
-492.706177000
 20
6.073338000
 30
0.000000000
 40
507.550083418
100
AcDbArc
 50
3.814810300
 51
12.155256212
  0
ARC
  5
A17
330
A02
100
AcDbEntity
  8
Sketch001
100
AcDbCircle
 10
5.222933000
 20
90.960657000
 30
0.000000000
 40
22.053339000
100
AcDbArc
 50
53.216892970
 51
94.572184481
  0
ARC
  5
A18
330
A02
100
AcDbEntity
  8
Sketch001
100
AcDbCircle
 10
-20.607717000
 20
71.811190000
 30
0.000000000
 40
53.655733853
100
AcDbArc
 50
13.715709063
 51
43.320654684
  0
ARC
  5
A19
330
A02
100
AcDbEntity
  8
Sketch001
100
AcDbCircle
 10
-295.716120000
 20
18.006042000
 30
0.000000000
 40
333.928163622
100
AcDbArc
 50
3.063548038
 51
11.491699919
  0
LINE
  5
A1A
330
A02
100
AcDbEntity
  8
Sketch001
100
AcDbLine
 10
37.734818050
 20
35.852340599
 30
0.000000000
 11
97.651788000
 21
35.852340599
 31
0.000000000
  0
LINE
  5
A1B
330
A02
100
AcDbEntity
  8
Sketch001
100
AcDbLine
 10
97.651788000
 20
35.852340599
 30
0.000000000
 11
102.095115000
 21
32.674073000
 31
0.000000000
  0
LINE
  5
A1C
330
A02
100
AcDbEntity
  8
Sketch001
100
AcDbLine
 10
102.095115000
 20
32.674073000
 30
0.000000000
 11
102.095115000
 21
101.477515000
 31
0.000000000
  0
LINE
  5
A1D
330
A02
100
AcDbEntity
  8
Sketch001
100
AcDbLine
 10
102.095115000
 20
101.477515000
 30
0.000000000
 11
165.595115000
 21
101.477515000
 31
0.000000000
  0
LINE
  5
A1E
330
A02
100
AcDbEntity
  8
Sketch001
100
AcDbLine
 10
165.595115000
 20
101.477515000
 30
0.000000000
 11
165.595115000
 21
-96.598650000
 31
0.000000000
  0
LINE
  5
A1F
330
A02
100
AcDbEntity
  8
Sketch001
100
AcDbLine
 10
165.595115000
 20
-96.598650000
 30
0.000000000
 11
102.656450000
 21
-96.598650000
 31
0.000000000
  0
LINE
  5
A20
330
A02
100
AcDbEntity
  8
Sketch001
100
AcDbLine
 10
102.656450000
 20
27.826235000
 30
0.000000000
 11
102.656450000
 21
-96.598650000
 31
0.000000000
  0
LINE
  5
A21
330
A02
100
AcDbEntity
  8
Sketch001
100
AcDbLine
 10
97.418685000
 20
25.340394261
 30
0.000000000
 11
102.656450000
 21
27.826235000
 31
0.000000000
  0
LINE
  5
A22
330
A02
100
AcDbEntity
  8
Sketch001
100
AcDbLine
 10
38.359486544
 20
25.340394261
 30
0.000000000
 11
97.418685000
 21
25.340394261
 31
0.000000000
  0
ARC
  5
A23
330
A02
100
AcDbEntity
  8
Sketch001
100
AcDbCircle
 10
-999.976105000
 20
40.721665000
 30
0.000000000
 40
1038.449509681
100
AcDbArc
 50
-2.545726393
 51
-0.848682691
  0
ARC
  5
A24
330
A02
100
AcDbEntity
  8
Sketch001
100
AcDbCircle
 10
-418.627405000
 20
15.094360000
 30
0.000000000
 40
456.536320202
100
AcDbArc
 50
-8.290144044
 51
-2.573282873
  0
ARC
  5
A25
330
A02
100
AcDbEntity
  8
Sketch001
100
AcDbCircle
 10
-737.024978000
 20
85.128038000
 30
0.000000000
 40
782.054665000
100
AcDbArc
 50
-13.536546581
 51
-10.004273785
  0
LINE
  5
A26
330
A02
100
AcDbEntity
  8
Sketch001
100
AcDbLine
 10
23.304847788
 20
-97.924017616
 30
0.000000000
 11
20.205794534
 21
-98.052119027
 31
0.000000000
  0
ARC
  5
A27
330
A02
100
AcDbEntity
  8
Sketch001
100
AcDbCircle
 10
14.026182000
 20
-93.480097000
 30
0.000000000
 40
7.687066832
100
AcDbArc
 50
-60.594494723
 51
-36.496101244
  0
LINE
  5
A28
330
A02
100
AcDbEntity
  8
Sketch001
100
AcDbLine
 10
17.800435435
 20
-100.176813172
 30
0.000000000
 11
22.051947837
 21
-100.176813172
 31
0.000000000
  0
ARC
  5
A29
330
A02
100
AcDbEntity
  8
Sketch001
100
AcDbCircle
 10
21.729125000
 20
-193.875197000
 30
0.000000000
 40
93.698939944
100
AcDbArc
 50
83.342568108
 51
89.802597311
  0
ARC
  5
A2A
330
A02
100
AcDbEntity
  8
Sketch001
100
AcDbCircle
 10
21.515435000
 20
-218.419800000
 30
0.000000000
 40
118.132166490
100
AcDbArc
 50
77.128770720
 51
84.619850215
  0
ARC
  5
A2B
330
A02
100
AcDbEntity
  8
Sketch001
100
AcDbCircle
 10
39.753827000
 20
-128.257428000
 30
0.000000000
 40
26.273754000
100
AcDbArc
 50
56.538042829
 51
72.096814118
  0
ARC
  5
A2C
330
A02
100
AcDbEntity
  8
Sketch001
100
AcDbCircle
 10
51.865923000
 20
-108.663510000
 30
0.000000000
 40
3.323465976
100
AcDbArc
 50
0.090527360
 51
44.392988088
  0
ARC
  5
A2D
330
A02
100
AcDbEntity
  8
Sketch001
100
AcDbCircle
 10
51.810173000
 20
-107.825073000
 30
0.000000000
 40
3.480412528
100
AcDbArc
 50
-75.013197044
 51
-13.850709509
  0
ARC
  5
A2E
330
A02
100
AcDbEntity
  8
Sketch001
100
AcDbCircle
 10
44.352895000
 20
-92.575852000
 30
0.000000000
 40
20.401545394
100
AcDbArc
 50
-80.201009905
 51
-65.817742013
  0
ARC
  5
A2F
330
A02
100
AcDbEntity
  8
Sketch001
100
AcDbCircle
 10
39.787772000
 20
-62.034968000
 30
0.000000000
 40
51.278581786
100
AcDbArc
 50
-93.757799887
 51
-80.982387988
  0
ARC
  5
A30
330
A02
100
AcDbEntity
  8
Sketch001
100
AcDbCircle
 10
57.245802000
 20
317.001037000
 30
0.000000000
 40
430.707782800
100
AcDbArc
 50
-94.933280086
 51
-92.770539542
  0
ARC
  5
A31
330
A02
100
AcDbEntity
  8
Sketch001
100
AcDbCircle
 10
25.215390000
 20
-24.396763000
 30
0.000000000
 40
87.857312662
100
AcDbArc
 50
-100.564365676
 51
-93.268093987
  0
ARC
  5
A32
330
A02
100
AcDbEntity
  8
Sketch001
100
AcDbCircle
 10
9.370717000
 20
-105.008525000
 30
0.000000000
 40
5.762339873
100
AcDbArc
 50
-113.766116887
 51
-92.616811776
  0
ARC
  5
A33
330
A02
100
AcDbEntity
  8
Sketch001
100
AcDbCircle
 10
7.811803000
 20
-108.885355000
 30
0.000000000
 40
1.591814943
100
AcDbArc
 50
-177.593558839
 51
-118.655113306
  0
LINE
  5
A34
330
A02
100
AcDbEntity
  8
Sketch001
100
AcDbLine
 10
6.221391853
 20
-108.952192085
 30
0.000000000
 11
5.314581847
 21
-100.536525325
 31
0.000000000
  0
ARC
  5
A35
330
A02
100
AcDbEntity
  8
Sketch001
100
AcDbCircle
 10
-61.704463000
 20
-105.049555000
 30
0.000000000
 40
67.170825580
100
AcDbArc
 50
3.852453647
 51
9.798651302
  0
ARC
  5
A36
330
A02
100
AcDbEntity
  8
Sketch001
100
AcDbCircle
 10
-143.556475000
 20
-107.185140000
 30
0.000000000
 40
148.663311884
100
AcDbArc
 50
5.236146738
 51
8.159090952
  0
ARC
  5
A37
330
A02
100
AcDbEntity
  8
Sketch001
100
AcDbCircle
 10
-41.382000000
 20
-96.300210000
 30
0.000000000
 40
46.128985997
100
AcDbArc
 50
12.792213389
 51
22.738460876
  0
ARC
  5
A38
330
A02
100
AcDbEntity
  8
Sketch001
100
AcDbCircle
 10
-75.900498000
 20
-102.665563000
 30
0.000000000
 40
80.771354812
100
AcDbArc
 50
17.430807895
 51
23.007803261
  0
ARC
  5
A39
330
A02
100
AcDbEntity
  8
Sketch001
100
AcDbCircle
 10
-34.258893000
 20
-81.433302000
 30
0.000000000
 40
34.299484858
100
AcDbArc
 50
17.541504043
 51
21.512043592
  0
ARC
  5
A3A
330
A02
100
AcDbEntity
  8
Sketch001
100
AcDbCircle
 10
-5.105487000
 20
-70.249410000
 30
0.000000000
 40
3.089027094
100
AcDbArc
 50
26.817584576
 51
68.990553516
  0
ARC
  5
A3B
330
A02
100
AcDbEntity
  8
Sketch001
100
AcDbCircle
 10
-5.678685000
 20
-70.812890000
 30
0.000000000
 40
3.835042732
100
AcDbArc
 50
64.008150018
 51
91.041453251
  0
ARC
  5
A3C
330
A02
100
AcDbEntity
  8
Sketch001
100
AcDbCircle
 10
-5.548860000
 20
-65.604208000
 30
0.000000000
 40
1.388682071
100
AcDbArc
 50
-168.600125972
 51
-98.261018533
  0
LINE
  5
A3D
330
A02
100
AcDbEntity
  8
Sketch001
100
AcDbLine
 10
-6.910145608
 20
-65.878688212
 30
0.000000000
 11
-7.127687000
 21
-63.813235000
 31
0.000000000
  0
LINE
  5
A3E
330
A02
100
AcDbEntity
  8
Sketch001
100
AcDbLine
 10
-7.127687000
 20
-63.813235000
 30
0.000000000
 11
-7.722152525
 21
-60.361508354
 31
0.000000000
  0
ARC
  5
A3F
330
A02
100
AcDbEntity
  8
Sketch001
100
AcDbCircle
 10
-9.058145000
 20
-60.712100000
 30
0.000000000
 40
1.381227858
100
AcDbArc
 50
14.704035744
 51
63.985112037
  0
LINE
  5
A40
330
A02
100
AcDbEntity
  8
Sketch001
100
AcDbLine
 10
-8.452332000
 20
-59.470818000
 30
0.000000000
 11
-45.165059673
 21
-62.545191598
 31
0.000000000
  0
ARC
  5
A41
330
A02
100
AcDbEntity
  8
Sketch001
100
AcDbCircle
 10
-47.192365000
 20
-58.401117000
 30
0.000000000
 40
4.613385000
100
AcDbArc
 50
-115.809283828
 51
-63.931851592
  0
LINE
  5
A42
330
A02
100
AcDbEntity
  8
Sketch001
100
AcDbLine
 10
-49.200926607
 20
-62.554308716
 30
0.000000000
 11
-51.711260000
 21
-62.554308716
 31
0.000000000
  0
LINE
  5
A43
330
A02
100
AcDbEntity
  8
Sketch001
100
AcDbLine
 10
-51.711260000
 20
-62.554308716
 30
0.000000000
 11
-55.396298901
 21
-96.310001622
 31
0.000000000
  0
ARC
  5
A44
330
A02
100
AcDbEntity
  8
Sketch001
100
AcDbCircle
 10
-57.281616000
 20
-95.753165000
 30
0.000000000
 40
1.965830000
100
AcDbArc
 50
-46.423521880
 51
-16.454735223
  0
ARC
  5
A45
330
A02
100
AcDbEntity
  8
Sketch001
100
AcDbCircle
 10
-57.688209886
 20
-94.410790000
 30
0.000000000
 40
3.279820163
100
AcDbArc
 50
-130.587527122
 51
-57.511639261
  0
ARC
  5
A46
330
A02
100
AcDbEntity
  8
Sketch001
100
AcDbCircle
 10
-58.060455000
 20
-95.746647000
 30
0.000000000
 40
2.106444461
100
AcDbArc
 50
179.531171557
 51
-146.752221544
  0
LINE
  5
A47
330
A02
100
AcDbEntity
  8
Sketch001
100
AcDbLine
 10
-60.166828943
 20
-95.729411000
 30
0.000000000
 11
-59.672453733
 21
-88.779328079
 31
0.000000000
  0
ARC
  5
A48
330
A02
100
AcDbEntity
  8
Sketch001
100
AcDbCircle
 10
128.601695000
 20
2476.074857000
 30
0.000000000
 40
2571.755071113
100
AcDbArc
 50
-95.222795655
 51
-94.198289826
  0
ARC
  5
A49
330
A02
100
AcDbEntity
  8
Sketch001
100
AcDbCircle
 10
-105.256464599
 20
-85.795938735
 30
0.000000000
 40
0.830145000
100
AcDbArc
 50
107.208997836
 51
171.862472171
  0
LINE
  5
A4A
330
A02
100
AcDbEntity
  8
Sketch001
100
AcDbLine
 10
-106.078251000
 20
-85.678432000
 30
0.000000000
 11
-106.093733052
 21
-86.081177930
 31
0.000000000
  0
ARC
  5
A4B
330
A02
100
AcDbEntity
  8
Sketch001
100
AcDbCircle
 10
-106.912955000
 20
-83.177655000
 30
0.000000000
 40
3.016880841
100
AcDbArc
 50
-106.799924483
 51
-74.243715953
  0
LINE
  5
A4C
330
A02
100
AcDbEntity
  8
Sketch001
100
AcDbLine
 10
-107.784925684
 20
-86.065775000
 30
0.000000000
 11
-107.812019112
 21
-85.494087105
 31
0.000000000
  0
ARC
  5
A4D
330
A02
100
AcDbEntity
  8
Sketch001
100
AcDbCircle
 10
-108.465121733
 20
-85.330186333
 30
0.000000000
 40
0.673354659
100
AcDbArc
 50
-14.087846571
 51
91.618741335
  0
ARC
  5
A4E
330
A02
100
AcDbEntity
  8
Sketch001
100
AcDbCircle
 10
13.080395000
 20
1016.589568000
 30
0.000000000
 40
1107.935991633
100
AcDbArc
 50
-99.147270092
 51
-96.299268760
  0
ARC
  5
A4F
330
A02
100
AcDbEntity
  8
Sketch001
100
AcDbCircle
 10
-163.074008000
 20
-77.793990409
 30
0.000000000
 40
0.537690000
100
AcDbArc
 50
87.560728055
 51
176.681448298
  0
LINE
  5
A50
330
A02
100
AcDbEntity
  8
Sketch001
100
AcDbLine
 10
-163.734018444
 20
-78.866912196
 30
0.000000000
 11
-163.610796361
 21
-77.762865000
 31
0.000000000
  0
ARC
  5
A51
330
A02
100
AcDbEntity
  8
Sketch001
100
AcDbCircle
 10
-164.051077000
 20
-78.879592000
 30
0.000000000
 40
0.317312000
100
AcDbArc
 50
-92.291142507
 51
2.290152003
  0
LINE
  5
A52
330
A02
100
AcDbEntity
  8
Sketch001
100
AcDbLine
 10
-165.103701200
 20
-79.057144316
 30
0.000000000
 11
-164.063762285
 21
-79.196650337
 31
0.000000000
  0
ARC
  5
A53
330
A02
100
AcDbEntity
  8
Sketch001
100
AcDbCircle
 10
-164.478825000
 20
-78.639112000
 30
0.000000000
 40
0.751812000
100
AcDbArc
 50
178.996598861
 51
-146.218102072
  0
LINE
  5
A54
330
A02
100
AcDbEntity
  8
Sketch001
100
AcDbLine
 10
-165.230521715
 20
-78.625946450
 30
0.000000000
 11
-165.141869831
 21
-77.497387532
 31
0.000000000
  0
ARC
  5
A55
330
A02
100
AcDbEntity
  8
Sketch001
100
AcDbCircle
 10
-165.446312000
 20
-77.472022540
 30
0.000000000
 40
0.305497000
100
AcDbArc
 50
-4.762671976
 51
94.763706672
  0
ARC
  5
A56
330
A02
100
AcDbEntity
  8
Sketch001
100
AcDbCircle
 10
139.534700000
 20
1683.531840000
 30
0.000000000
 40
1786.922310529
100
AcDbArc
 50
-101.792788066
 51
-99.827829319
  0
ARC
  5
A57
330
A02
100
AcDbEntity
  8
Sketch001
100
AcDbCircle
 10
-226.758390323
 20
-65.792238000
 30
0.000000000
 40
1.101060208
100
AcDbArc
 50
163.917229793
 51
6.158445015
  0
ARC
  5
A58
330
A02
100
AcDbEntity
  8
Sketch001
100
AcDbCircle
 10
227.951388000
 20
1620.938772000
 30
0.000000000
 40
1746.927832259
100
AcDbArc
 50
-106.725381680
 51
-105.123277126
  0
ARC
  5
A59
330
A02
100
AcDbEntity
  8
Sketch001
100
AcDbCircle
 10
-276.089495394
 20
-51.428169000
 30
0.000000000
 40
1.458149885
100
AcDbArc
 50
173.197313691
 51
-26.792970489
  0
ARC
  5
A5A
330
A02
100
AcDbEntity
  8
Sketch001
100
AcDbCircle
 10
-11.955608000
 20
831.712615000
 30
0.000000000
 40
922.044620406
100
AcDbArc
 50
-109.867539331
 51
-106.740393003
  0
ARC
  5
A5B
330
A02
100
AcDbEntity
  8
Sketch001
100
AcDbCircle
 10
-326.547068796
 20
-35.242975000
 30
0.000000000
 40
1.255204492
100
AcDbArc
 50
156.072855146
 51
-9.616605189
  0
ARC
  5
A5C
330
A02
100
AcDbEntity
  8
Sketch001
100
AcDbCircle
 10
-233.853692000
 20
210.019290000
 30
0.000000000
 40
262.126307520
100
AcDbArc
 50
-116.752762502
 51
-110.977301264
  0
ARC
  5
A5D
330
A02
100
AcDbEntity
  8
Sketch001
100
AcDbCircle
 10
-563.521265000
 20
-282.220753000
 30
0.000000000
 40
333.854385000
100
AcDbArc
 50
50.651932808
 51
53.261755565
  0
ARC
  5
A5E
330
A02
100
AcDbEntity
  8
Sketch001
100
AcDbCircle
 10
-364.680664834
 20
-13.551225000
 30
0.000000000
 40
1.415880301
100
AcDbArc
 50
162.363879305
 51
-52.710384464
  0
LINE
  5
A5F
330
A02
100
AcDbEntity
  8
Sketch001
100
AcDbLine
 10
-9.378825000
 20
-55.860797000
 30
0.000000000
 11
-45.613343442
 21
-58.004718523
 31
0.000000000
  0
ARC
  5
A60
330
A02
100
AcDbEntity
  8
Sketch001
100
AcDbCircle
 10
-46.621590000
 20
-61.570150000
 30
0.000000000
 40
3.705248000
100
AcDbArc
 50
74.209951992
 51
135.814775195
  0
LINE
  5
A61
330
A02
100
AcDbEntity
  8
Sketch001
100
AcDbLine
 10
-49.278587644
 20
-58.987665486
 30
0.000000000
 11
-51.341820000
 21
-58.987665486
 31
0.000000000
  0
LINE
  5
A62
330
A02
100
AcDbEntity
  8
Sketch001
100
AcDbLine
 10
-51.341820000
 20
-58.987665486
 30
0.000000000
 11
-44.884180000
 21
3.905635000
 31
0.000000000
  0
LINE
  5
A63
330
A02
100
AcDbEntity
  8
Sketch001
100
AcDbLine
 10
-44.884180000
 20
3.905635000
 30
0.000000000
 11
1.042819389
 21
-0.445848360
 31
0.000000000
  0
ARC
  5
A64
330
A02
100
AcDbEntity
  8
Sketch001
100
AcDbCircle
 10
3560.266148000
 20
-20.212745000
 30
0.000000000
 40
3559.278218000
100
AcDbArc
 50
179.681799088
 51
-179.412526525
  0
LINE
  5
A65
330
A02
100
AcDbEntity
  8
Sketch001
100
AcDbLine
 10
1.175023800
 20
-56.706618091
 30
0.000000000
 11
-1.869196468
 21
-56.706618091
 31
0.000000000
  0
ARC
  5
A66
330
A02
100
AcDbEntity
  8
Sketch001
100
AcDbCircle
 10
-6.240683000
 20
-65.510195000
 30
0.000000000
 40
9.829184141
100
AcDbArc
 50
63.592935654
 51
91.199238976
  0
LINE
  5
A67
330
A02
100
AcDbEntity
  8
Sketch001
100
AcDbLine
 10
-6.446399375
 20
-55.683163828
 30
0.000000000
 11
-11.827192556
 21
-12.292133375
 31
0.000000000
  0
ARC
  5
A68
330
A02
100
AcDbEntity
  8
Sketch001
100
AcDbCircle
 10
-13.080175000
 20
-12.364370000
 30
0.000000000
 40
1.255063000
100
AcDbArc
 50
3.299549351
 51
-170.334411331
  0
LINE
  5
A69
330
A02
100
AcDbEntity
  8
Sketch001
100
AcDbLine
 10
-9.378825000
 20
-55.860797000
 30
0.000000000
 11
-14.317421734
 21
-12.575091745
 31
0.000000000
  0
LINE
  5
A6A
330
A02
100
AcDbEntity
  8
Sketch001
100
AcDbLine
 10
-44.527535000
 20
5.509920000
 30
0.000000000
 11
1.390482958
 21
1.292957000
 31
0.000000000
  0
LINE
  5
A6B
330
A02
100
AcDbEntity
  8
Sketch001
100
AcDbLine
 10
1.390482958
 20
1.292957000
 30
0.000000000
 11
1.390482958
 21
8.052873349
 31
0.000000000
  0
ARC
  5
A6C
330
A02
100
AcDbEntity
  8
Sketch001
100
AcDbCircle
 10
-0.686400000
 20
15.002365000
 30
0.000000000
 40
7.253197711
100
AcDbArc
 50
-117.473727411
 51
-73.361017344
  0
LINE
  5
A6D
330
A02
100
AcDbEntity
  8
Sketch001
100
AcDbLine
 10
-4.032603519
 20
8.567165000
 30
0.000000000
 11
-44.017820000
 21
11.442007000
 31
0.000000000
  0
LINE
  5
A6E
330
A02
100
AcDbEntity
  8
Sketch001
100
AcDbLine
 10
-44.017820000
 20
11.442007000
 30
0.000000000
 11
-44.527535000
 21
5.509920000
 31
0.000000000
  0
ARC
  5
A6F
330
A02
100
AcDbEntity
  8
Sketch001
100
AcDbCircle
 10
-1.550440000
 20
3.608940000
 30
0.000000000
 40
6.615628872
100
AcDbArc
 50
64.816739409
 51
113.000826691
  0
LINE
  5
A70
330
A02
100
AcDbEntity
  8
Sketch001
100
AcDbLine
 10
-4.135460000
 20
9.698621188
 30
0.000000000
 11
-25.262575000
 21
11.524060000
 31
0.000000000
  0
LINE
  5
A71
330
A02
100
AcDbEntity
  8
Sketch001
100
AcDbLine
 10
-25.262575000
 20
11.524060000
 30
0.000000000
 11
-27.810392000
 21
29.014418000
 31
0.000000000
  0
LINE
  5
A72
330
A02
100
AcDbEntity
  8
Sketch001
100
AcDbLine
 10
-27.810392000
 20
29.014418000
 30
0.000000000
 11
0.771248223
 21
30.326344581
 31
0.000000000
  0
ARC
  5
A73
330
A02
100
AcDbEntity
  8
Sketch001
100
AcDbCircle
 10
-195.426907000
 20
15.285925000
 30
0.000000000
 40
196.773805000
100
AcDbArc
 50
-1.657068839
 51
4.383682490
  0
ARC
  5
A74
330
A02
100
AcDbEntity
  8
Sketch001
100
AcDbCircle
 10
-5.063983000
 20
-55.042200000
 30
0.000000000
 40
4.991645471
100
AcDbArc
 50
-104.297235288
 51
-44.810010060
  0
LINE
  5
A75
330
A02
100
AcDbEntity
  8
Sketch001
100
AcDbLine
 10
-1.522672000
 20
-58.560102914
 30
0.000000000
 11
1.181643904
 21
-58.560102914
 31
0.000000000
  0
LINE
  5
A76
330
A02
100
AcDbEntity
  8
Sketch001
100
AcDbLine
 10
1.181643904
 20
-58.560102914
 30
0.000000000
 11
1.181643904
 21
-60.888540629
 31
0.000000000
  0
ARC
  5
A77
330
A02
100
AcDbEntity
  8
Sketch001
100
AcDbCircle
 10
2.978570000
 20
-59.509988000
 30
0.000000000
 40
2.264807000
100
AcDbArc
 50
-142.505564743
 51
-36.403234888
  0
LINE
  5
A78
330
A02
100
AcDbEntity
  8
Sketch001
100
AcDbLine
 10
4.801423223
 20
-60.854070168
 30
0.000000000
 11
4.801423223
 21
-56.648232646
 31
0.000000000
  0
LINE
  5
A79
330
A02
100
AcDbEntity
  8
Sketch001
100
AcDbLine
 10
4.801423223
 20
-56.648232646
 30
0.000000000
 11
9.145158068
 21
-56.648232646
 31
0.000000000
  0
ARC
  5
A7A
330
A02
100
AcDbEntity
  8
Sketch001
100
AcDbCircle
 10
6.336245000
 20
-61.064285000
 30
0.000000000
 40
5.233690000
100
AcDbArc
 50
3.813778972
 51
57.540833562
  0
LINE
  5
A7B
330
A02
100
AcDbEntity
  8
Sketch001
100
AcDbLine
 10
11.558345000
 20
-60.716172086
 30
0.000000000
 11
11.558345000
 21
-99.008020000
 31
0.000000000
  0
LINE
  5
A7C
330
A02
100
AcDbEntity
  8
Sketch001
100
AcDbLine
 10
11.558345000
 20
-99.008020000
 30
0.000000000
 11
8.786852083
 21
-98.833265761
 31
0.000000000
  0
ARC
  5
A7D
330
A02
100
AcDbEntity
  8
Sketch001
100
AcDbCircle
 10
9.877145000
 20
-96.657813000
 30
0.000000000
 40
2.433379000
100
AcDbArc
 50
-176.000270627
 51
-116.619102376
  0
ARC
  5
A7E
330
A02
100
AcDbEntity
  8
Sketch001
100
AcDbCircle
 10
-58.706835000
 20
-102.069005000
 30
0.000000000
 40
66.363838548
100
AcDbArc
 50
4.529976247
 51
15.181165255
  0
ARC
  5
A7F
330
A02
100
AcDbEntity
  8
Sketch001
100
AcDbCircle
 10
-77.133983000
 20
-104.831075000
 30
0.000000000
 40
84.898714825
100
AcDbArc
 50
13.723370546
 51
25.733883763
  0
ARC
  5
A80
330
A02
100
AcDbEntity
  8
Sketch001
100
AcDbCircle
 10
-6.691335000
 20
-71.710120000
 30
0.000000000
 40
7.101363121
100
AcDbArc
 50
31.793108544
 51
61.695600255
  0
ARC
  5
A81
330
A02
100
AcDbEntity
  8
Sketch001
100
AcDbCircle
 10
-13.617270000
 20
-87.980750000
 30
0.000000000
 40
24.763509835
100
AcDbArc
 50
65.439400368
 51
70.743156127
  0
ARC
  5
A82
330
A02
100
AcDbEntity
  8
Sketch001
100
AcDbCircle
 10
10.043963000
 20
-59.388455000
 30
0.000000000
 40
16.348012784
100
AcDbArc
 50
-178.279651662
 51
-161.400141375
  0
ARC
  5
A83
330
A02
100
AcDbEntity
  8
Sketch001
100
AcDbCircle
 10
6.854675000
 20
-41.080128000
 30
0.000000000
 40
11.822481209
100
AcDbArc
 50
-99.511959153
 51
-73.239038787
  0
ARC
  5
A84
330
A02
100
AcDbEntity
  8
Sketch001
100
AcDbCircle
 10
9.397752000
 20
-49.055150000
 30
0.000000000
 40
3.455543313
100
AcDbArc
 50
-75.481421581
 51
-1.438016463
  0
ARC
  5
A85
330
A02
100
AcDbEntity
  8
Sketch001
100
AcDbCircle
 10
-468.264090000
 20
-10.944365000
 30
0.000000000
 40
482.630231684
100
AcDbArc
 50
-4.539390317
 51
4.277341518
  0
ARC
  5
A86
330
A02
100
AcDbEntity
  8
Sketch001
100
AcDbCircle
 10
6.526010000
 20
23.327562000
 30
0.000000000
 40
6.720937893
100
AcDbArc
 50
14.869750916
 51
45.619480052
  0
LINE
  5
A87
330
A02
100
AcDbEntity
  8
Sketch001
100
AcDbLine
 10
11.226770973
 20
28.131087000
 30
0.000000000
 11
4.900969000
 21
28.131087000
 31
0.000000000
  0
LINE
  5
A88
330
A02
100
AcDbEntity
  8
Sketch001
100
AcDbLine
 10
4.900969000
 20
28.131087000
 30
0.000000000
 11
4.900969000
 21
-52.740063455
 31
0.000000000
  0
ENDSEC
  0
SECTION
  2
OBJECTS
  0
DICTIONARY
  5
F000
330
0
100
AcDbDictionary
  3
ACAD_GROUP
350
F001
  0
DICTIONARY
  5
F001
330
F000
100
AcDbDictionary
  0
ENDSEC
  0
EOF