999
FreeCAD v1.2 44567 (Git)
  0
SECTION
  2
HEADER
  9
$ACADVER
  1
AC1014
  9
$ACADMAINTVER
 70
     9
  9
$DWGCODEPAGE
  3
ANSI_1252
  9
$TEXTSTYLE
  7
STANDARD
  9
$DIMSTYLE
  2
STANDARD
  9
$DIMTXSTY
  7
STANDARD
  9
$CMLSTYLE
  2
STANDARD
  9
$LUNITS
 70
2
  9
$INSUNITS
 70
4
  9
$PEXTMAX
 10
50
 20
50
 30
50
  9
$PEXTMIN
 10
0
 20
0
 30
0
  9
$HANDSEED
  5
FFFF
  0
ENDSEC
  0
SECTION
  2
CLASSES
  0
CLASS
  1
ACDBDICTIONARYWDFLT
  2
AcDbDictionaryWithDefault
  3
ObjectDBX Classes
 90
        0
280
     0
281
     0
  0
CLASS
  1
XRECORD
  2
AcDbXrecord
  3
ObjectDBX Classes
 90
        0
280
     0
281
     0
  0
CLASS
  1
LWPOLYLINE
  2
AcDbPolyline
  3
ObjectDBX Classes
 90
        0
280
     0
281
     1
  0
ENDSEC
  0
SECTION
  2
TABLES
  0
TABLE
  2
VPORT
  5
20
330
0
100
AcDbSymbolTable
 70
     1
  0
VPORT
  5
21
330
20
100
AcDbSymbolTableRecord
100
AcDbViewportTableRecord
  2
*ACTIVE
 70
     0
  0
ENDTAB
  0
TABLE
  2
LTYPE
  5
22
330
0
100
AcDbSymbolTable
 70
     1
  0
LTYPE
  5
23
330
21
100
AcDbSymbolTableRecord
100
AcDbLinetypeTableRecord
  2
BYBLOCK
 70
     0
  3

 72
    65
 73
     0
 40
0.0
  0
LTYPE
  5
24
330
21
100
AcDbSymbolTableRecord
100
AcDbLinetypeTableRecord
  2
BYLAYER
 70
     0
  3

 72
    65
 73
     0
 40
0.0
  0
LTYPE
  5
25
330
21
100
AcDbSymbolTableRecord
100
AcDbLinetypeTableRecord
  2
CONTINUOUS
 70
     0
  3
Solid line
 72
    65
 73
     0
 40
0.0
  0
ENDTAB
  0
TABLE
  2
LAYER
  5
A89
330
0
100
AcDbSymbolTable
 70
3
  0
LAYER
  5
A8A
330
A89
100
AcDbSymbolTableRecord
100
AcDbLayerTableRecord
  2
0
 70
   0
 62
   7
  6
CONTINUOUS
  0
LAYER
  5
A8B
330
A89
100
AcDbSymbolTableRecord
100
AcDbLayerTableRecord
  2
none
 70
    0
 62
    7
  6
CONTINUOUS
  0
LAYER
  5
A8C
330
A89
100
AcDbSymbolTableRecord
100
AcDbLayerTableRecord
  2
Sketch001
 70
    0
 62
    7
  6
CONTINUOUS
  0
ENDTAB
  0
TABLE
  2
STYLE
  5
70
330
0
100
AcDbSymbolTable
 70
     2
  0
STYLE
  5
71
330
70
100
AcDbSymbolTableRecord
100
AcDbTextStyleTableRecord
  2
STANDARD
 70
     0
 40
0.0
 41
1.0
 50
0.0
 71
     0
 42
2.5
  3
arial.ttf
  4

  0
STYLE
  5
72
330
70
100
AcDbSymbolTableRecord
100
AcDbTextStyleTableRecord
  2
ANNOTATIVE
 70
     0
 40
0.0
 41
1.0
 50
0.0
 71
     0
 42
2.5
  3
arial.ttf
  4

  0
ENDTAB
  0
TABLE
  2
VIEW
  5
73
330
0
100
AcDbSymbolTable
 70
     0
  0
ENDTAB
  0
TABLE
  2
UCS
  5
74
330
0
100
AcDbSymbolTable
 70
     0
  0
ENDTAB
  0
TABLE
  2
APPID
  5
75
330
0
100
AcDbSymbolTable
 70
     2
  0
APPID
  5
76
330
75
100
AcDbSymbolTableRecord
100
AcDbRegAppTableRecord
  2
ACAD
 70
     0
  0
APPID
  5
77
330
75
100
AcDbSymbolTableRecord
100
AcDbRegAppTableRecord
  2
ACADANNOTATIVE
 70
     0
  0
ENDTAB
  0
TABLE
  2
DIMSTYLE
  5
78
330
0
100
AcDbSymbolTable
 70
     2
  0
DIMSTYLE
105
79
330
78
100
AcDbSymbolTableRecord
100
AcDbDimStyleTableRecord
  2
STANDARD
 70
     0
  3

  4

  5

  6

  7

 40
0.0
 41
2.5
 42
0.625
 43
3.75
 44
1.25
 45
0.0
 46
0.0
 47
0.0
 48
0.0
140
2.5
141
2.5
142
0.0
143
0.03937007874016
144
1.0
145
0.0
146
1.0
147
0.625
 71
     0
 72
     0
 73
     0
 74
     0
 75
     0
 76
     0
 77
     1
 78
     8
170
     0
171
     3
172
     1
173
     0
174
     0
175
     0
176
     0
177
     0
178
     0
270
     2
271
     2
272
     2
273
     2
274
     3
340
71
275
     0
280
     0
281
     0
282
     0
283
     0
284
     8
285
     0
286
     0
287
     3
288
     0
  0
ENDTAB
  0
TABLE
  2
BLOCK_RECORD
  5
A01
330
0
100
AcDbSymbolTable
  70
5
  0
BLOCK_RECORD
  5
A02
330
A01
100
AcDbSymbolTableRecord
100
AcDbBlockTableRecord
  2
*MODEL_SPACE
  0
BLOCK_RECORD
  5
A03
330
A01
100
AcDbSymbolTableRecord
100
AcDbBlockTableRecord
  2
*PAPER_SPACE
  0
ENDTAB
  0
ENDSEC
  0
SECTION
  2
BLOCKS
  0
BLOCK
  5
A04
330
A02
100
AcDbEntity
  8
0
100
AcDbBlockBegin
  2
*MODEL_SPACE
 70
   0
 10
0
 20
0
 30
0
  3
*MODEL_SPACE
  1
 
  0
ENDBLK
  5
A05
330
A02
100
AcDbEntity
  8
0
100
AcDbBlockEnd
  0
BLOCK
  5
A06
330
A03
100
AcDbEntity
 67
1
  8
0
100
AcDbBlockBegin
  2
*PAPER_SPACE
 70
   0
 10
0
 20
0
 30
0
  3
*PAPER_SPACE
  1
 
  0
ENDBLK
  5
A07
330
A03
100
AcDbEntity
 67
    1
  8
0
100
AcDbBlockEnd
  0
ENDSEC
  0
SECTION
  2
ENTITIES
  0
ARC
  5
A08
330
A02
100
AcDbEntity
  8
Sketch001
100
AcDbCircle
 10
-1170.198532000
 20
-813.300249000
 30
0.000000000
 40
1019.846079927
100
AcDbArc
 50
51.153098967
 51
54.501808137
  0
LINE
  5
A09
330
A02
100
AcDbEntity
  8
Sketch001
100
AcDbLine
 10
-577.997101000
 20
16.990960073
 30
0.000000000
 11
-578.434920000
 21
23.068691000
 31
0.000000000
  0
LINE
  5
A0A
330
A02
100
AcDbEntity
  8
Sketch001
100
AcDbLine
 10
-578.434920000
 20
23.068691000
 30
0.000000000
 11
-582.381208000
 21
21.602800000
 31
0.000000000
  0
LINE
  5
A0B
330
A02
100
AcDbEntity
  8
Sketch001
100
AcDbLine
 10
-582.381208000
 20
21.602800000
 30
0.000000000
 11
-582.381208000
 21
31.571395000
 31
0.000000000
  0
LINE
  5
A0C
330
A02
100
AcDbEntity
  8
Sketch001
100
AcDbLine
 10
-582.381208000
 20
31.571395000
 30
0.000000000
 11
-389.319897000
 21
37.319325000
 31
0.000000000
  0
LINE
  5
A0D
330
A02
100
AcDbEntity
  8
Sketch001
100
AcDbLine
 10
-389.319897000
 20
37.319325000
 30
0.000000000
 11
-40.940019544
 21
145.524210582
 31
0.000000000
  0
ARC
  5
A0E
330
A02
100
AcDbEntity
  8
Sketch001
100
AcDbCircle
 10
301.413470000
 20
100.505123000
 30
0.000000000
 40
345.300782000
100
AcDbArc
 50
172.508653972
 51
-171.453111426
  0
LINE
  5
A0F
330
A02
100
AcDbEntity
  8
Sketch001
100
AcDbLine
 10
-40.052598643
 20
49.186958428
 30
0.000000000
 11
1.117783000
 21
49.695392000
 31
0.000000000
  0
LINE
  5
A10
330
A02
100
AcDbEntity
  8
Sketch001
100
AcDbLine
 10
1.117783000
 20
49.695392000
 30
0.000000000
 11
1.328457000
 21
53.575837000
 31
0.000000000
  0
LINE
  5
A11
330
A02
100
AcDbEntity
  8
Sketch001
100
AcDbLine
 10
1.328457000
 20
53.575837000
 30
0.000000000
 11
7.386126000
 21
53.575837000
 31
0.000000000
  0
LINE
  5
A12
330
A02
100
AcDbEntity
  8
Sketch001
100
AcDbLine
 10
7.386126000
 20
53.575837000
 30
0.000000000
 11
7.386126000
 21
47.622483160
 31
0.000000000
  0
LINE
  5
A13
330
A02
100
AcDbEntity
  8
Sketch001
100
AcDbLine
 10
7.386126000
 20
47.622483160
 30
0.000000000
 11
15.371454545
 21
47.622483160
 31
0.000000000
  0
ARC
  5
A14
330
A02
100
AcDbEntity
  8
Sketch001
100
AcDbCircle
 10
12.020427000
 20
55.890785000
 30
0.000000000
 40
8.921558212
100
AcDbArc
 50
-67.937973046
 51
-28.677585827
  0
LINE
  5
A15
330
A02
100
AcDbEntity
  8
Sketch001
100
AcDbLine
 10
19.847613000
 20
51.609504789
 30
0.000000000
 11
19.884211537
 21
57.744590663
 31
0.000000000
  0
ARC
  5
A16
330
A02
100
AcDbEntity
  8
Sketch001
100
AcDbCircle
 10
-714.107894478
 20
8.802444010
 30
0.000000000
 40
735.622012593
100
AcDbArc
 50
3.814800660
 51
12.155255031
  0
ARC
  5
A17
330
A02
100
AcDbEntity
  8
Sketch001
100
AcDbCircle
 10
7.569900104
 20
131.834603087
 30
0.000000000
 40
31.963176107
100
AcDbArc
 50
53.216822225
 51
94.572219571
  0
ARC
  5
A18
330
A02
100
AcDbEntity
  8
Sketch001
100
AcDbCircle
 10
-29.867970142
 20
104.080158501
 30
0.000000000
 40
77.766382633
100
AcDbArc
 50
13.715604564
 51
43.320625664
  0
ARC
  5
A19
330
A02
100
AcDbEntity
  8
Sketch001
100
AcDbCircle
 10
-428.598676517
 20
26.097210215
 30
0.000000000
 40
483.981620469
100
AcDbArc
 50
3.063526389
 51
11.491682956
  0
LINE
  5
A1A
330
A02
100
AcDbEntity
  8
Sketch001
100
AcDbLine
 10
54.691282789
 20
51.962712074
 30
0.000000000
 11
141.532451487
 21
51.962712074
 31
0.000000000
  0
LINE
  5
A1B
330
A02
100
AcDbEntity
  8
Sketch001
100
AcDbLine
 10
141.532451487
 20
51.962712074
 30
0.000000000
 11
147.972424000
 21
47.356445000
 31
0.000000000
  0
LINE
  5
A1C
330
A02
100
AcDbEntity
  8
Sketch001
100
AcDbLine
 10
147.972424000
 20
47.356445000
 30
0.000000000
 11
147.972424000
 21
147.077300000
 31
0.000000000
  0
LINE
  5
A1D
330
A02
100
AcDbEntity
  8
Sketch001
100
AcDbLine
 10
147.972424000
 20
147.077300000
 30
0.000000000
 11
240.006690000
 21
147.077300000
 31
0.000000000
  0
LINE
  5
A1E
330
A02
100
AcDbEntity
  8
Sketch001
100
AcDbLine
 10
240.006690000
 20
147.077300000
 30
0.000000000
 11
240.006690000
 21
-140.006076000
 31
0.000000000
  0
LINE
  5
A1F
330
A02
100
AcDbEntity
  8
Sketch001
100
AcDbLine
 10
240.006690000
 20
-140.006076000
 30
0.000000000
 11
148.786000000
 21
-140.006076000
 31
0.000000000
  0
LINE
  5
A20
330
A02
100
AcDbEntity
  8
Sketch001
100
AcDbLine
 10
148.786000000
 20
40.330189000
 30
0.000000000
 11
148.786000000
 21
-140.006076000
 31
0.000000000
  0
LINE
  5
A21
330
A02
100
AcDbEntity
  8
Sketch001
100
AcDbLine
 10
141.194600000
 20
36.726897038
 30
0.000000000
 11
148.786000000
 21
40.330189000
 31
0.000000000
  0
LINE
  5
A22
330
A02
100
AcDbEntity
  8
Sketch001
100
AcDbLine
 10
55.596656139
 20
36.726897038
 30
0.000000000
 11
141.194600000
 21
36.726897038
 31
0.000000000
  0
ARC
  5
A23
330
A02
100
AcDbEntity
  8
Sketch001
100
AcDbCircle
 10
-1449.323886972
 20
59.020291545
 30
0.000000000
 40
1505.085657534
100
AcDbArc
 50
-2.545712522
 51
-0.848698625
  0
ARC
  5
A24
330
A02
100
AcDbEntity
  8
Sketch001
100
AcDbCircle
 10
-606.741195924
 20
21.877137455
 30
0.000000000
 40
661.684818619
100
AcDbArc
 50
-8.290104692
 51
-2.573251212
  0
ARC
  5
A25
330
A02
100
AcDbEntity
  8
Sketch001
100
AcDbCircle
 10
-1068.213430542
 20
123.381044856
 30
0.000000000
 40
1133.477590834
100
AcDbArc
 50
-13.536571403
 51
-10.004250784
  0
LINE
  5
A26
330
A02
100
AcDbEntity
  8
Sketch001
100
AcDbLine
 10
33.776964570
 20
-141.927488747
 30
0.000000000
 11
29.285437744
 21
-142.112676178
 31
0.000000000
  0
ARC
  5
A27
330
A02
100
AcDbEntity
  8
Sketch001
100
AcDbCircle
 10
20.328966000
 20
-135.486176000
 30
0.000000000
 40
11.141314586
100
AcDbArc
 50
-60.594485827
 51
-36.496112922
  0
LINE
  5
A28
330
A02
100
AcDbEntity
  8
Sketch001
100
AcDbLine
 10
25.799213280
 20
-145.192116727
 30
0.000000000
 11
31.961179029
 21
-145.192116727
 31
0.000000000
  0
ARC
  5
A29
330
A02
100
AcDbEntity
  8
Sketch001
100
AcDbCircle
 10
31.493293000
 20
-280.994671000
 30
0.000000000
 40
135.803360284
100
AcDbArc
 50
83.342555485
 51
89.802597316
  0
ARC
  5
A2A
330
A02
100
AcDbEntity
  8
Sketch001
100
AcDbCircle
 10
31.183579000
 20
-316.568598000
 30
0.000000000
 40
171.215862269
100
AcDbArc
 50
77.128773917
 51
84.619839910
  0
ARC
  5
A2B
330
A02
100
AcDbEntity
  8
Sketch001
100
AcDbCircle
 10
57.617547000
 20
-185.890994000
 30
0.000000000
 40
38.080087048
100
AcDbArc
 50
56.538042720
 51
72.096826371
  0
ARC
  5
A2C
330
A02
100
AcDbEntity
  8
Sketch001
100
AcDbCircle
 10
75.172318000
 20
-157.492383000
 30
0.000000000
 40
4.816891275
100
AcDbArc
 50
0.090529685
 51
44.393002486
  0
ARC
  5
A2D
330
A02
100
AcDbEntity
  8
Sketch001
100
AcDbCircle
 10
75.091515000
 20
-156.277188000
 30
0.000000000
 40
5.044364153
100
AcDbArc
 50
-75.013185056
 51
-13.850701711
  0
ARC
  5
A2E
330
A02
100
AcDbEntity
  8
Sketch001
100
AcDbCircle
 10
64.283247000
 20
-134.175599000
 30
0.000000000
 40
29.569152417
100
AcDbArc
 50
-80.201008535
 51
-65.817742538
  0
ARC
  5
A2F
330
A02
100
AcDbEntity
  8
Sketch001
100
AcDbCircle
 10
57.666748000
 20
-89.910910000
 30
0.000000000
 40
74.321046616
100
AcDbArc
 50
-93.757772918
 51
-80.982387979
  0
ARC
  5
A30
330
A02
100
AcDbEntity
  8
Sketch001
100
AcDbCircle
 10
82.969692000
 20
459.448154000
 30
0.000000000
 40
624.249993185
100
AcDbArc
 50
-94.933279877
 51
-92.770536276
  0
ARC
  5
A31
330
A02
100
AcDbEntity
  8
Sketch001
100
AcDbCircle
 10
36.546141000
 20
-35.359656000
 30
0.000000000
 40
127.336743383
100
AcDbArc
 50
-100.564366222
 51
-93.268092731
  0
ARC
  5
A32
330
A02
100
AcDbEntity
  8
Sketch001
100
AcDbCircle
 10
13.581528000
 20
-152.195000000
 30
0.000000000
 40
8.351694980
100
AcDbArc
 50
-113.766104308
 51
-92.616810635
  0
ARC
  5
A33
330
A02
100
AcDbEntity
  8
Sketch001
100
AcDbCircle
 10
11.322101000
 20
-157.813917000
 30
0.000000000
 40
2.307107809
100
AcDbArc
 50
-177.593562431
 51
-118.655038475
  0
LINE
  5
A34
330
A02
100
AcDbEntity
  8
Sketch001
100
AcDbLine
 10
9.017027786
 20
-157.910787639
 30
0.000000000
 11
7.702737818
 21
-145.713471256
 31
0.000000000
  0
ARC
  5
A35
330
A02
100
AcDbEntity
  8
Sketch001
100
AcDbCircle
 10
-89.431890000
 20
-152.254469000
 30
0.000000000
 40
97.354612489
100
AcDbArc
 50
3.852453326
 51
9.798651323
  0
ARC
  5
A36
330
A02
100
AcDbEntity
  8
Sketch001
100
AcDbCircle
 10
-208.064800000
 20
-155.349696000
 30
0.000000000
 40
215.466440726
100
AcDbArc
 50
5.236146510
 51
8.159090595
  0
ARC
  5
A37
330
A02
100
AcDbEntity
  8
Sketch001
100
AcDbCircle
 10
-59.977356000
 20
-139.573528000
 30
0.000000000
 40
66.857443177
100
AcDbArc
 50
12.792210038
 51
22.738458259
  0
ARC
  5
A38
330
A02
100
AcDbEntity
  8
Sketch001
100
AcDbCircle
 10
-110.007033000
 20
-148.799208000
 30
0.000000000
 40
117.066654181
100
AcDbArc
 50
17.430807573
 51
23.007806528
  0
ARC
  5
A39
330
A02
100
AcDbEntity
  8
Sketch001
100
AcDbCircle
 10
-49.653416000
 20
-118.026049000
 30
0.000000000
 40
49.712250774
100
AcDbArc
 50
17.541512037
 51
21.512040207
  0
ARC
  5
A3A
330
A02
100
AcDbEntity
  8
Sketch001
100
AcDbCircle
 10
-7.399680000
 20
-101.816581000
 30
0.000000000
 40
4.477109375
100
AcDbArc
 50
26.817552248
 51
68.990586653
  0
ARC
  5
A3B
330
A02
100
AcDbEntity
  8
Sketch001
100
AcDbCircle
 10
-8.230452000
 20
-102.633266000
 30
0.000000000
 40
5.558354817
100
AcDbArc
 50
64.008156113
 51
91.041444633
  0
ARC
  5
A3C
330
A02
100
AcDbEntity
  8
Sketch001
100
AcDbCircle
 10
-8.042288000
 20
-95.084016000
 30
0.000000000
 40
2.012697625
100
AcDbArc
 50
-168.600123128
 51
-98.261028006
  0
LINE
  5
A3D
330
A02
100
AcDbEntity
  8
Sketch001
100
AcDbLine
 10
-10.015278320
 20
-95.481836220
 30
0.000000000
 11
-10.330573000
 21
-92.488256000
 31
0.000000000
  0
LINE
  5
A3E
330
A02
100
AcDbEntity
  8
Sketch001
100
AcDbLine
 10
-10.330573000
 20
-92.488256000
 30
0.000000000
 11
-11.192169567
 21
-87.485468109
 31
0.000000000
  0
ARC
  5
A3F
330
A02
100
AcDbEntity
  8
Sketch001
100
AcDbCircle
 10
-13.128500000
 20
-87.993600000
 30
0.000000000
 40
2.001892495
100
AcDbArc
 50
14.704017253
 51
63.985121046
  0
LINE
  5
A40
330
A02
100
AcDbEntity
  8
Sketch001
100
AcDbLine
 10
-12.250460869
 20
-86.194538898
 30
0.000000000
 11
-65.460361763
 21
-90.650406636
 31
0.000000000
  0
ARC
  5
A41
330
A02
100
AcDbEntity
  8
Sketch001
100
AcDbCircle
 10
-68.398655387
 20
-84.644156925
 30
0.000000000
 40
6.686449357
100
AcDbArc
 50
-115.809310657
 51
-63.931840564
  0
LINE
  5
A42
330
A02
100
AcDbEntity
  8
Sketch001
100
AcDbLine
 10
-71.309784303
 20
-90.663619812
 30
0.000000000
 11
-74.948154000
 21
-90.663619812
 31
0.000000000
  0
LINE
  5
A43
330
A02
100
AcDbEntity
  8
Sketch001
100
AcDbLine
 10
-74.948154000
 20
-90.663619812
 30
0.000000000
 11
-80.289097939
 21
-139.587720339
 31
0.000000000
  0
ARC
  5
A44
330
A02
100
AcDbEntity
  8
Sketch001
100
AcDbCircle
 10
-83.021600000
 20
-138.780664000
 30
0.000000000
 40
2.849194175
100
AcDbArc
 50
-46.423518183
 51
-16.454734184
  0
ARC
  5
A45
330
A02
100
AcDbEntity
  8
Sketch001
100
AcDbCircle
 10
-83.610899617
 20
-136.835082000
 30
0.000000000
 40
4.753636030
100
AcDbArc
 50
-130.587519555
 51
-57.511636013
  0
ARC
  5
A46
330
A02
100
AcDbEntity
  8
Sketch001
100
AcDbCircle
 10
-84.150415000
 20
-138.771221000
 30
0.000000000
 40
3.052993000
100
AcDbArc
 50
179.531168484
 51
-146.752270625
  0
LINE
  5
A47
330
A02
100
AcDbEntity
  8
Sketch001
100
AcDbLine
 10
-87.203305793
 20
-138.746239695
 30
0.000000000
 11
-86.486778638
 21
-128.673077033
 31
0.000000000
  0
ARC
  5
A48
330
A02
100
AcDbEntity
  8
Sketch001
100
AcDbCircle
 10
186.389963000
 20
3588.720191000
 30
0.000000000
 40
3727.395126002
100
AcDbArc
 50
-95.222795658
 51
-94.198289824
  0
ARC
  5
A49
330
A02
100
AcDbEntity
  8
Sketch001
100
AcDbCircle
 10
-152.554354000
 20
-124.349075000
 30
0.000000000
 40
1.203176391
100
AcDbArc
 50
107.208992067
 51
171.862474834
  0
LINE
  5
A4A
330
A02
100
AcDbEntity
  8
Sketch001
100
AcDbLine
 10
-153.745415805
 20
-124.178765857
 30
0.000000000
 11
-153.767857467
 21
-124.762489725
 31
0.000000000
  0
ARC
  5
A4B
330
A02
100
AcDbEntity
  8
Sketch001
100
AcDbCircle
 10
-154.955204000
 20
-120.554243000
 30
0.000000000
 40
4.372543000
100
AcDbArc
 50
-106.799923570
 51
-74.243716806
  0
LINE
  5
A4C
330
A02
100
AcDbEntity
  8
Sketch001
100
AcDbLine
 10
-156.219002377
 20
-124.740165354
 30
0.000000000
 11
-156.258826079
 21
-123.911583203
 31
0.000000000
  0
ARC
  5
A4D
330
A02
100
AcDbEntity
  8
Sketch001
100
AcDbCircle
 10
-157.205458000
 20
-123.674019154
 30
0.000000000
 40
0.975986000
100
AcDbArc
 50
-14.087846571
 51
91.618741335
  0
ARC
  5
A4E
330
A02
100
AcDbEntity
  8
Sketch001
100
AcDbCircle
 10
18.958183000
 20
1473.402750000
 30
0.000000000
 40
1605.796467872
100
AcDbArc
 50
-99.147270070
 51
-96.299290743
  0
ARC
  5
A4F
330
A02
100
AcDbEntity
  8
Sketch001
100
AcDbCircle
 10
-236.352701000
 20
-112.751382843
 30
0.000000000
 40
0.779305000
100
AcDbArc
 50
87.560728055
 51
176.681448298
  0
LINE
  5
A50
330
A02
100
AcDbEntity
  8
Sketch001
100
AcDbLine
 10
-237.309297331
 20
-114.306433000
 30
0.000000000
 11
-237.130699203
 21
-112.706271000
 31
0.000000000
  0
ARC
  5
A51
330
A02
100
AcDbEntity
  8
Sketch001
100
AcDbCircle
 10
-237.768828000
 20
-114.324810547
 30
0.000000000
 40
0.459898000
100
AcDbArc
 50
-92.291142507
 51
2.290152003
  0
LINE
  5
A52
330
A02
100
AcDbEntity
  8
Sketch001
100
AcDbLine
 10
-239.294457207
 20
-114.582146740
 30
0.000000000
 11
-237.787213491
 21
-114.784340899
 31
0.000000000
  0
ARC
  5
A53
330
A02
100
AcDbEntity
  8
Sketch001
100
AcDbCircle
 10
-238.388786000
 20
-113.976266996
 30
0.000000000
 40
1.089647006
100
AcDbArc
 50
178.996579859
 51
-146.218102072
  0
LINE
  5
A54
330
A02
100
AcDbEntity
  8
Sketch001
100
AcDbLine
 10
-239.478265911
 20
-113.957185000
 30
0.000000000
 11
-239.349558647
 21
-112.321457534
 31
0.000000000
  0
ARC
  5
A55
330
A02
100
AcDbEntity
  8
Sketch001
100
AcDbCircle
 10
-239.790969298
 20
-112.284680836
 30
0.000000000
 40
0.442940051
100
AcDbArc
 50
-4.762671976
 51
94.763706672
  0
ARC
  5
A56
330
A02
100
AcDbEntity
  8
Sketch001
100
AcDbCircle
 10
202.235808000
 20
2440.041215000
 30
0.000000000
 40
2589.890851356
100
AcDbArc
 50
-101.792788286
 51
-99.827829343
  0
ARC
  5
A57
330
A02
100
AcDbEntity
  8
Sketch001
100
AcDbCircle
 10
-328.654768894
 20
-95.356383000
 30
0.000000000
 40
1.596435894
100
AcDbArc
 50
163.917465247
 51
6.158362374
  0
ARC
  5
A58
330
A02
100
AcDbEntity
  8
Sketch001
100
AcDbCircle
 10
330.383287000
 20
2349.321419000
 30
0.000000000
 40
2531.924728421
100
AcDbArc
 50
-106.725381751
 51
-105.123304083
  0
ARC
  5
A59
330
A02
100
AcDbEntity
  8
Sketch001
100
AcDbCircle
 10
-400.152662457
 20
-74.537844000
 30
0.000000000
 40
2.113383066
100
AcDbArc
 50
173.197394266
 51
-26.793012884
  0
ARC
  5
A5A
330
A02
100
AcDbEntity
  8
Sketch001
100
AcDbCircle
 10
-17.327960000
 20
1205.449765000
 30
0.000000000
 40
1336.373220000
100
AcDbArc
 50
-109.867539605
 51
-106.740393255
  0
ARC
  5
A5B
330
A02
100
AcDbEntity
  8
Sketch001
100
AcDbCircle
 10
-473.283766873
 20
-51.079696000
 30
0.000000000
 40
1.819230765
100
AcDbArc
 50
156.073598379
 51
-9.616713645
  0
ARC
  5
A5C
330
A02
100
AcDbEntity
  8
Sketch001
100
AcDbCircle
 10
-338.937840000
 20
304.393249000
 30
0.000000000
 40
379.915010321
100
AcDbArc
 50
-116.752770060
 51
-110.977299109
  0
ARC
  5
A5D
330
A02
100
AcDbEntity
  8
Sketch001
100
AcDbCircle
 10
-816.744346000
 20
-409.039051000
 30
0.000000000
 40
483.874673560
100
AcDbArc
 50
50.651938215
 51
53.261752236
  0
ARC
  5
A5E
330
A02
100
AcDbEntity
  8
Sketch001
100
AcDbCircle
 10
-528.553025012
 20
-19.640608000
 30
0.000000000
 40
2.052128860
100
AcDbArc
 50
162.363206737
 51
-52.710425966
  0
LINE
  5
A5F
330
A02
100
AcDbEntity
  8
Sketch001
100
AcDbLine
 10
-13.593280000
 20
-80.962321000
 30
0.000000000
 11
-66.110088042
 21
-84.069634259
 31
0.000000000
  0
ARC
  5
A60
330
A02
100
AcDbEntity
  8
Sketch001
100
AcDbCircle
 10
-67.571399150
 20
-89.237221088
 30
0.000000000
 40
5.370231261
100
AcDbArc
 50
74.209943389
 51
135.814801990
  0
LINE
  5
A61
330
A02
100
AcDbEntity
  8
Sketch001
100
AcDbLine
 10
-71.422342000
 20
-85.494278000
 30
0.000000000
 11
-74.412703000
 21
-85.494278000
 31
0.000000000
  0
LINE
  5
A62
330
A02
100
AcDbEntity
  8
Sketch001
100
AcDbLine
 10
-74.412703000
 20
-85.494278000
 30
0.000000000
 11
-65.053269000
 21
5.660667000
 31
0.000000000
  0
LINE
  5
A63
330
A02
100
AcDbEntity
  8
Sketch001
100
AcDbLine
 10
-65.053269000
 20
5.660667000
 30
0.000000000
 11
1.511418410
 21
-0.646193942
 31
0.000000000
  0
ARC
  5
A64
330
A02
100
AcDbEntity
  8
Sketch001
100
AcDbCircle
 10
5160.102073000
 20
-29.295514000
 30
0.000000000
 40
5158.670208994
100
AcDbArc
 50
179.681799088
 51
-179.412526525
  0
LINE
  5
A65
330
A02
100
AcDbEntity
  8
Sketch001
100
AcDbLine
 10
1.703030000
 20
-82.188219890
 30
0.000000000
 11
-2.709136161
 21
-82.188219890
 31
0.000000000
  0
ARC
  5
A66
330
A02
100
AcDbEntity
  8
Sketch001
100
AcDbCircle
 10
-9.044988000
 20
-94.947758000
 30
0.000000000
 40
14.246011067
100
AcDbArc
 50
63.592931586
 51
91.199239147
  0
LINE
  5
A67
330
A02
100
AcDbEntity
  8
Sketch001
100
AcDbLine
 10
-9.343144809
 20
-80.704867358
 30
0.000000000
 11
-17.141842551
 21
-17.815707774
 31
0.000000000
  0
ARC
  5
A68
330
A02
100
AcDbEntity
  8
Sketch001
100
AcDbCircle
 10
-18.957863462
 20
-17.920404900
 30
0.000000000
 40
1.819036403
100
AcDbArc
 50
3.299560364
 51
-170.334421079
  0
LINE
  5
A69
330
A02
100
AcDbEntity
  8
Sketch001
100
AcDbLine
 10
-13.593280000
 20
-80.962321000
 30
0.000000000
 11
-20.751077757
 21
-18.225815977
 31
0.000000000
  0
LINE
  5
A6A
330
A02
100
AcDbEntity
  8
Sketch001
100
AcDbLine
 10
-64.536363000
 20
7.985848000
 30
0.000000000
 11
2.015307060
 21
1.873958000
 31
0.000000000
  0
LINE
  5
A6B
330
A02
100
AcDbEntity
  8
Sketch001
100
AcDbLine
 10
2.015307060
 20
1.873958000
 30
0.000000000
 11
2.015307060
 21
11.671501346
 31
0.000000000
  0
ARC
  5
A6C
330
A02
100
AcDbEntity
  8
Sketch001
100
AcDbCircle
 10
-0.994840000
 20
21.743804000
 30
0.000000000
 40
10.512481442
100
AcDbArc
 50
-117.473724667
 51
-73.361018747
  0
LINE
  5
A6D
330
A02
100
AcDbEntity
  8
Sketch001
100
AcDbLine
 10
-5.844687000
 20
12.416894000
 30
0.000000000
 11
-63.797603000
 21
16.583571000
 31
0.000000000
  0
LINE
  5
A6E
330
A02
100
AcDbEntity
  8
Sketch001
100
AcDbLine
 10
-63.797603000
 20
16.583571000
 30
0.000000000
 11
-64.536363000
 21
7.985848000
 31
0.000000000
  0
ARC
  5
A6F
330
A02
100
AcDbEntity
  8
Sketch001
100
AcDbCircle
 10
-2.247144000
 20
5.230647000
 30
0.000000000
 40
9.588409249
100
AcDbArc
 50
64.816706845
 51
113.000855668
  0
LINE
  5
A70
330
A02
100
AcDbEntity
  8
Sketch001
100
AcDbLine
 10
-5.993765778
 20
14.056768299
 30
0.000000000
 11
-36.614529000
 21
16.702496000
 31
0.000000000
  0
LINE
  5
A71
330
A02
100
AcDbEntity
  8
Sketch001
100
AcDbLine
 10
-36.614529000
 20
16.702496000
 30
0.000000000
 11
-40.307228000
 21
42.052295000
 31
0.000000000
  0
LINE
  5
A72
330
A02
100
AcDbEntity
  8
Sketch001
100
AcDbLine
 10
-40.307228000
 20
42.052295000
 30
0.000000000
 11
1.117816091
 21
43.953745281
 31
0.000000000
  0
ARC
  5
A73
330
A02
100
AcDbEntity
  8
Sketch001
100
AcDbCircle
 10
-283.243652000
 20
22.154785000
 30
0.000000000
 40
285.195791000
100
AcDbArc
 50
-1.657070970
 51
4.383682490
  0
ARC
  5
A74
330
A02
100
AcDbEntity
  8
Sketch001
100
AcDbCircle
 10
-7.339526000
 20
-79.775883000
 30
0.000000000
 40
7.234680473
100
AcDbArc
 50
-104.297274613
 51
-44.810019541
  0
LINE
  5
A75
330
A02
100
AcDbEntity
  8
Sketch001
100
AcDbLine
 10
-2.206900000
 20
-84.874584000
 30
0.000000000
 11
1.712626314
 21
-84.874584000
 31
0.000000000
  0
LINE
  5
A76
330
A02
100
AcDbEntity
  8
Sketch001
100
AcDbLine
 10
1.712626314
 20
-84.874584000
 30
0.000000000
 11
1.712626314
 21
-88.249325411
 31
0.000000000
  0
ARC
  5
A77
330
A02
100
AcDbEntity
  8
Sketch001
100
AcDbCircle
 10
4.317017304
 20
-86.251308000
 30
0.000000000
 40
3.282518241
100
AcDbArc
 50
-142.505567975
 51
-36.403231782
  0
LINE
  5
A78
330
A02
100
AcDbEntity
  8
Sketch001
100
AcDbLine
 10
6.958986000
 20
-88.199365344
 30
0.000000000
 11
6.958986000
 21
-82.103596371
 31
0.000000000
  0
LINE
  5
A79
330
A02
100
AcDbEntity
  8
Sketch001
100
AcDbLine
 10
6.958986000
 20
-82.103596371
 30
0.000000000
 11
13.254614057
 21
-82.103596371
 31
0.000000000
  0
ARC
  5
A7A
330
A02
100
AcDbEntity
  8
Sketch001
100
AcDbCircle
 10
9.183491000
 20
-88.504041000
 30
0.000000000
 40
7.585495000
100
AcDbArc
 50
3.813774894
 51
57.540833562
  0
LINE
  5
A7B
330
A02
100
AcDbEntity
  8
Sketch001
100
AcDbLine
 10
16.752187967
 20
-87.999501000
 30
0.000000000
 11
16.752187967
 21
-143.498116000
 31
0.000000000
  0
LINE
  5
A7C
330
A02
100
AcDbEntity
  8
Sketch001
100
AcDbLine
 10
16.752187967
 20
-143.498116000
 30
0.000000000
 11
12.735299935
 21
-143.244835470
 31
0.000000000
  0
ARC
  5
A7D
330
A02
100
AcDbEntity
  8
Sketch001
100
AcDbCircle
 10
14.315525000
 20
-140.091825000
 30
0.000000000
 40
3.526838000
100
AcDbArc
 50
-176.000620151
 51
-116.619102376
  0
ARC
  5
A7E
330
A02
100
AcDbEntity
  8
Sketch001
100
AcDbCircle
 10
-85.087253000
 20
-147.934583000
 30
0.000000000
 40
96.184997910
100
AcDbArc
 50
4.529989411
 51
15.181147050
  0
ARC
  5
A7F
330
A02
100
AcDbEntity
  8
Sketch001
100
AcDbCircle
 10
-111.794793000
 20
-151.937811000
 30
0.000000000
 40
123.048675296
100
AcDbArc
 50
13.723356030
 51
25.733883640
  0
ARC
  5
A80
330
A02
100
AcDbEntity
  8
Sketch001
100
AcDbCircle
 10
-9.698143000
 20
-103.933675000
 30
0.000000000
 40
10.292423708
100
AcDbArc
 50
31.793112262
 51
61.695613867
  0
ARC
  5
A81
330
A02
100
AcDbEntity
  8
Sketch001
100
AcDbCircle
 10
-19.736308000
 20
-127.515651000
 30
0.000000000
 40
35.891207360
100
AcDbArc
 50
65.439400805
 51
70.743161889
  0
ARC
  5
A82
330
A02
100
AcDbEntity
  8
Sketch001
100
AcDbCircle
 10
14.557302000
 20
-86.075163000
 30
0.000000000
 40
23.694133241
100
AcDbArc
 50
-178.279658616
 51
-161.400149741
  0
ARC
  5
A83
330
A02
100
AcDbEntity
  8
Sketch001
100
AcDbCircle
 10
9.934880000
 20
-59.539834000
 30
0.000000000
 40
17.135015853
100
AcDbArc
 50
-99.511957234
 51
-73.239032885
  0
ARC
  5
A84
330
A02
100
AcDbEntity
  8
Sketch001
100
AcDbCircle
 10
13.620712000
 20
-71.098499000
 30
0.000000000
 40
5.008323684
100
AcDbArc
 50
-75.481422260
 51
-1.438028968
  0
ARC
  5
A85
330
A02
100
AcDbEntity
  8
Sketch001
100
AcDbCircle
 10
-678.682548000
 20
-15.862309000
 30
0.000000000
 40
699.504240442
100
AcDbArc
 50
-4.539390321
 51
4.277341640
  0
ARC
  5
A86
330
A02
100
AcDbEntity
  8
Sketch001
100
AcDbCircle
 10
9.458530000
 20
33.810003000
 30
0.000000000
 40
9.741049000
100
AcDbArc
 50
14.869744474
 51
45.619472606
  0
LINE
  5
A87
330
A02
100
AcDbEntity
  8
Sketch001
100
AcDbLine
 10
16.271619154
 20
40.772032287
 30
0.000000000
 11
7.103259801
 21
40.772032287
 31
0.000000000
  0
LINE
  5
A88
330
A02
100
AcDbEntity
  8
Sketch001
100
AcDbLine
 10
7.103259801
 20
40.772032287
 30
0.000000000
 11
7.103259801
 21
-76.439262847
 31
0.000000000
  0
ENDSEC
  0
SECTION
  2
OBJECTS
  0
DICTIONARY
  5
F000
330
0
100
AcDbDictionary
  3
ACAD_GROUP
350
F001
  0
DICTIONARY
  5
F001
330
F000
100
AcDbDictionary
  0
ENDSEC
  0
EOF