999
FreeCAD v1.2 44567 (Git)
  0
SECTION
  2
HEADER
  9
$ACADVER
  1
AC1014
  9
$ACADMAINTVER
 70
     9
  9
$DWGCODEPAGE
  3
ANSI_1252
  9
$TEXTSTYLE
  7
STANDARD
  9
$DIMSTYLE
  2
STANDARD
  9
$DIMTXSTY
  7
STANDARD
  9
$CMLSTYLE
  2
STANDARD
  9
$LUNITS
 70
2
  9
$INSUNITS
 70
4
  9
$PEXTMAX
 10
50
 20
50
 30
50
  9
$PEXTMIN
 10
0
 20
0
 30
0
  9
$HANDSEED
  5
FFFF
  0
ENDSEC
  0
SECTION
  2
CLASSES
  0
CLASS
  1
ACDBDICTIONARYWDFLT
  2
AcDbDictionaryWithDefault
  3
ObjectDBX Classes
 90
        0
280
     0
281
     0
  0
CLASS
  1
XRECORD
  2
AcDbXrecord
  3
ObjectDBX Classes
 90
        0
280
     0
281
     0
  0
CLASS
  1
LWPOLYLINE
  2
AcDbPolyline
  3
ObjectDBX Classes
 90
        0
280
     0
281
     1
  0
ENDSEC
  0
SECTION
  2
TABLES
  0
TABLE
  2
VPORT
  5
20
330
0
100
AcDbSymbolTable
 70
     1
  0
VPORT
  5
21
330
20
100
AcDbSymbolTableRecord
100
AcDbViewportTableRecord
  2
*ACTIVE
 70
     0
  0
ENDTAB
  0
TABLE
  2
LTYPE
  5
22
330
0
100
AcDbSymbolTable
 70
     1
  0
LTYPE
  5
23
330
21
100
AcDbSymbolTableRecord
100
AcDbLinetypeTableRecord
  2
BYBLOCK
 70
     0
  3

 72
    65
 73
     0
 40
0.0
  0
LTYPE
  5
24
330
21
100
AcDbSymbolTableRecord
100
AcDbLinetypeTableRecord
  2
BYLAYER
 70
     0
  3

 72
    65
 73
     0
 40
0.0
  0
LTYPE
  5
25
330
21
100
AcDbSymbolTableRecord
100
AcDbLinetypeTableRecord
  2
CONTINUOUS
 70
     0
  3
Solid line
 72
    65
 73
     0
 40
0.0
  0
ENDTAB
  0
TABLE
  2
LAYER
  5
A89
330
0
100
AcDbSymbolTable
 70
3
  0
LAYER
  5
A8A
330
A89
100
AcDbSymbolTableRecord
100
AcDbLayerTableRecord
  2
0
 70
   0
 62
   7
  6
CONTINUOUS
  0
LAYER
  5
A8B
330
A89
100
AcDbSymbolTableRecord
100
AcDbLayerTableRecord
  2
none
 70
    0
 62
    7
  6
CONTINUOUS
  0
LAYER
  5
A8C
330
A89
100
AcDbSymbolTableRecord
100
AcDbLayerTableRecord
  2
Sketch001
 70
    0
 62
    7
  6
CONTINUOUS
  0
ENDTAB
  0
TABLE
  2
STYLE
  5
70
330
0
100
AcDbSymbolTable
 70
     2
  0
STYLE
  5
71
330
70
100
AcDbSymbolTableRecord
100
AcDbTextStyleTableRecord
  2
STANDARD
 70
     0
 40
0.0
 41
1.0
 50
0.0
 71
     0
 42
2.5
  3
arial.ttf
  4

  0
STYLE
  5
72
330
70
100
AcDbSymbolTableRecord
100
AcDbTextStyleTableRecord
  2
ANNOTATIVE
 70
     0
 40
0.0
 41
1.0
 50
0.0
 71
     0
 42
2.5
  3
arial.ttf
  4

  0
ENDTAB
  0
TABLE
  2
VIEW
  5
73
330
0
100
AcDbSymbolTable
 70
     0
  0
ENDTAB
  0
TABLE
  2
UCS
  5
74
330
0
100
AcDbSymbolTable
 70
     0
  0
ENDTAB
  0
TABLE
  2
APPID
  5
75
330
0
100
AcDbSymbolTable
 70
     2
  0
APPID
  5
76
330
75
100
AcDbSymbolTableRecord
100
AcDbRegAppTableRecord
  2
ACAD
 70
     0
  0
APPID
  5
77
330
75
100
AcDbSymbolTableRecord
100
AcDbRegAppTableRecord
  2
ACADANNOTATIVE
 70
     0
  0
ENDTAB
  0
TABLE
  2
DIMSTYLE
  5
78
330
0
100
AcDbSymbolTable
 70
     2
  0
DIMSTYLE
105
79
330
78
100
AcDbSymbolTableRecord
100
AcDbDimStyleTableRecord
  2
STANDARD
 70
     0
  3

  4

  5

  6

  7

 40
0.0
 41
2.5
 42
0.625
 43
3.75
 44
1.25
 45
0.0
 46
0.0
 47
0.0
 48
0.0
140
2.5
141
2.5
142
0.0
143
0.03937007874016
144
1.0
145
0.0
146
1.0
147
0.625
 71
     0
 72
     0
 73
     0
 74
     0
 75
     0
 76
     0
 77
     1
 78
     8
170
     0
171
     3
172
     1
173
     0
174
     0
175
     0
176
     0
177
     0
178
     0
270
     2
271
     2
272
     2
273
     2
274
     3
340
71
275
     0
280
     0
281
     0
282
     0
283
     0
284
     8
285
     0
286
     0
287
     3
288
     0
  0
ENDTAB
  0
TABLE
  2
BLOCK_RECORD
  5
A01
330
0
100
AcDbSymbolTable
  70
5
  0
BLOCK_RECORD
  5
A02
330
A01
100
AcDbSymbolTableRecord
100
AcDbBlockTableRecord
  2
*MODEL_SPACE
  0
BLOCK_RECORD
  5
A03
330
A01
100
AcDbSymbolTableRecord
100
AcDbBlockTableRecord
  2
*PAPER_SPACE
  0
ENDTAB
  0
ENDSEC
  0
SECTION
  2
BLOCKS
  0
BLOCK
  5
A04
330
A02
100
AcDbEntity
  8
0
100
AcDbBlockBegin
  2
*MODEL_SPACE
 70
   0
 10
0
 20
0
 30
0
  3
*MODEL_SPACE
  1
 
  0
ENDBLK
  5
A05
330
A02
100
AcDbEntity
  8
0
100
AcDbBlockEnd
  0
BLOCK
  5
A06
330
A03
100
AcDbEntity
 67
1
  8
0
100
AcDbBlockBegin
  2
*PAPER_SPACE
 70
   0
 10
0
 20
0
 30
0
  3
*PAPER_SPACE
  1
 
  0
ENDBLK
  5
A07
330
A03
100
AcDbEntity
 67
    1
  8
0
100
AcDbBlockEnd
  0
ENDSEC
  0
SECTION
  2
ENTITIES
  0
ARC
  5
A08
330
A02
100
AcDbEntity
  8
Sketch001
100
AcDbCircle
 10
-645.912528000
 20
-448.915980000
 30
0.000000000
 40
562.922735939
100
AcDbArc
 50
51.153098986
 51
54.501808116
  0
LINE
  5
A09
330
A02
100
AcDbEntity
  8
Sketch001
100
AcDbLine
 10
-319.036093907
 20
9.378470623
 30
0.000000000
 11
-319.277756000
 21
12.733186000
 31
0.000000000
  0
LINE
  5
A0A
330
A02
100
AcDbEntity
  8
Sketch001
100
AcDbLine
 10
-319.277756000
 20
12.733186000
 30
0.000000000
 11
-321.455982000
 21
11.924062000
 31
0.000000000
  0
LINE
  5
A0B
330
A02
100
AcDbEntity
  8
Sketch001
100
AcDbLine
 10
-321.455982000
 20
11.924062000
 30
0.000000000
 11
-321.455982000
 21
17.426410000
 31
0.000000000
  0
LINE
  5
A0C
330
A02
100
AcDbEntity
  8
Sketch001
100
AcDbLine
 10
-321.455982000
 20
17.426410000
 30
0.000000000
 11
-214.892252000
 21
20.599086000
 31
0.000000000
  0
LINE
  5
A0D
330
A02
100
AcDbEntity
  8
Sketch001
100
AcDbLine
 10
-214.892252000
 20
20.599086000
 30
0.000000000
 11
-22.597593905
 21
80.324754592
 31
0.000000000
  0
ARC
  5
A0E
330
A02
100
AcDbEntity
  8
Sketch001
100
AcDbCircle
 10
166.370690000
 20
55.475644000
 30
0.000000000
 40
190.595096000
100
AcDbArc
 50
172.508653972
 51
-171.453111426
  0
LINE
  5
A0F
330
A02
100
AcDbEntity
  8
Sketch001
100
AcDbLine
 10
-22.107765672
 20
27.149642401
 30
0.000000000
 11
0.616980000
 21
27.430282000
 31
0.000000000
  0
LINE
  5
A10
330
A02
100
AcDbEntity
  8
Sketch001
100
AcDbLine
 10
0.616980000
 20
27.430282000
 30
0.000000000
 11
0.733266000
 21
29.572166000
 31
0.000000000
  0
LINE
  5
A11
330
A02
100
AcDbEntity
  8
Sketch001
100
AcDbLine
 10
0.733266000
 20
29.572166000
 30
0.000000000
 11
4.076908000
 21
29.572166000
 31
0.000000000
  0
LINE
  5
A12
330
A02
100
AcDbEntity
  8
Sketch001
100
AcDbLine
 10
4.076908000
 20
29.572166000
 30
0.000000000
 11
4.076908000
 21
26.286104030
 31
0.000000000
  0
LINE
  5
A13
330
A02
100
AcDbEntity
  8
Sketch001
100
AcDbLine
 10
4.076908000
 20
26.286104030
 30
0.000000000
 11
8.484556901
 21
26.286104030
 31
0.000000000
  0
ARC
  5
A14
330
A02
100
AcDbEntity
  8
Sketch001
100
AcDbCircle
 10
6.634896000
 20
30.849944000
 30
0.000000000
 40
4.924416790
100
AcDbArc
 50
-67.937971505
 51
-28.677587907
  0
LINE
  5
A15
330
A02
100
AcDbEntity
  8
Sketch001
100
AcDbLine
 10
10.955254000
 20
28.486813137
 30
0.000000000
 11
10.975463620
 21
31.873254364
 31
0.000000000
  0
ARC
  5
A16
330
A02
100
AcDbEntity
  8
Sketch001
100
AcDbCircle
 10
-394.164942000
 20
4.858670000
 30
0.000000000
 40
406.040067030
100
AcDbArc
 50
3.814810352
 51
12.155256342
  0
ARC
  5
A17
330
A02
100
AcDbEntity
  8
Sketch001
100
AcDbCircle
 10
4.178346000
 20
72.768526000
 30
0.000000000
 40
17.642671353
100
AcDbArc
 50
53.216883666
 51
94.572184130
  0
ARC
  5
A18
330
A02
100
AcDbEntity
  8
Sketch001
100
AcDbCircle
 10
-16.486174000
 20
57.448952000
 30
0.000000000
 40
42.924588000
100
AcDbArc
 50
13.715710354
 51
43.320651340
  0
ARC
  5
A19
330
A02
100
AcDbEntity
  8
Sketch001
100
AcDbCircle
 10
-236.572896000
 20
14.404834000
 30
0.000000000
 40
267.142531305
100
AcDbArc
 50
3.063548060
 51
11.491700066
  0
LINE
  5
A1A
330
A02
100
AcDbEntity
  8
Sketch001
100
AcDbLine
 10
30.187854842
 20
28.681873000
 30
0.000000000
 11
78.121430000
 21
28.681873000
 31
0.000000000
  0
LINE
  5
A1B
330
A02
100
AcDbEntity
  8
Sketch001
100
AcDbLine
 10
78.121430000
 20
28.681873000
 30
0.000000000
 11
81.676092000
 21
26.139258000
 31
0.000000000
  0
LINE
  5
A1C
330
A02
100
AcDbEntity
  8
Sketch001
100
AcDbLine
 10
81.676092000
 20
26.139258000
 30
0.000000000
 11
81.676092000
 21
81.182012000
 31
0.000000000
  0
LINE
  5
A1D
330
A02
100
AcDbEntity
  8
Sketch001
100
AcDbLine
 10
81.676092000
 20
81.182012000
 30
0.000000000
 11
132.476092000
 21
81.182012000
 31
0.000000000
  0
LINE
  5
A1E
330
A02
100
AcDbEntity
  8
Sketch001
100
AcDbLine
 10
132.476092000
 20
81.182012000
 30
0.000000000
 11
132.476092000
 21
-77.278920000
 31
0.000000000
  0
LINE
  5
A1F
330
A02
100
AcDbEntity
  8
Sketch001
100
AcDbLine
 10
132.476092000
 20
-77.278920000
 30
0.000000000
 11
82.125160000
 21
-77.278920000
 31
0.000000000
  0
LINE
  5
A20
330
A02
100
AcDbEntity
  8
Sketch001
100
AcDbLine
 10
82.125160000
 20
22.260988000
 30
0.000000000
 11
82.125160000
 21
-77.278920000
 31
0.000000000
  0
LINE
  5
A21
330
A02
100
AcDbEntity
  8
Sketch001
100
AcDbLine
 10
77.934948000
 20
20.272315409
 30
0.000000000
 11
82.125160000
 21
22.260988000
 31
0.000000000
  0
LINE
  5
A22
330
A02
100
AcDbEntity
  8
Sketch001
100
AcDbLine
 10
30.687593780
 20
20.272315409
 30
0.000000000
 11
77.934948000
 21
20.272315409
 31
0.000000000
  0
ARC
  5
A23
330
A02
100
AcDbEntity
  8
Sketch001
100
AcDbCircle
 10
-799.980884000
 20
32.577332000
 30
0.000000000
 40
830.759612289
100
AcDbArc
 50
-2.545702426
 51
-0.848682686
  0
ARC
  5
A24
330
A02
100
AcDbEntity
  8
Sketch001
100
AcDbCircle
 10
-334.901924000
 20
12.075488000
 30
0.000000000
 40
365.229060539
100
AcDbArc
 50
-8.290123530
 51
-2.573228357
  0
ARC
  5
A25
330
A02
100
AcDbEntity
  8
Sketch001
100
AcDbCircle
 10
-589.619982000
 20
68.102430000
 30
0.000000000
 40
625.643732000
100
AcDbArc
 50
-13.536546581
 51
-10.004261774
  0
LINE
  5
A26
330
A02
100
AcDbEntity
  8
Sketch001
100
AcDbLine
 10
18.643878631
 20
-78.339214493
 30
0.000000000
 11
16.164634604
 21
-78.441695621
 31
0.000000000
  0
ARC
  5
A27
330
A02
100
AcDbEntity
  8
Sketch001
100
AcDbCircle
 10
11.220946000
 20
-74.784078000
 30
0.000000000
 40
6.149652322
100
AcDbArc
 50
-60.594488718
 51
-36.496109127
  0
LINE
  5
A28
330
A02
100
AcDbEntity
  8
Sketch001
100
AcDbLine
 10
14.240348748
 20
-80.141449625
 30
0.000000000
 11
17.641558267
 21
-80.141449625
 31
0.000000000
  0
ARC
  5
A29
330
A02
100
AcDbEntity
  8
Sketch001
100
AcDbCircle
 10
17.383300000
 20
-155.100158000
 30
0.000000000
 40
74.959153268
100
AcDbArc
 50
83.342568254
 51
89.802597316
  0
ARC
  5
A2A
330
A02
100
AcDbEntity
  8
Sketch001
100
AcDbCircle
 10
17.212348000
 20
-174.735840000
 30
0.000000000
 40
94.505734110
100
AcDbArc
 50
77.128773292
 51
84.619850290
  0
ARC
  5
A2B
330
A02
100
AcDbEntity
  8
Sketch001
100
AcDbCircle
 10
31.803062000
 20
-102.605942000
 30
0.000000000
 40
21.019003239
100
AcDbArc
 50
56.538043260
 51
72.096826558
  0
ARC
  5
A2C
330
A02
100
AcDbEntity
  8
Sketch001
100
AcDbCircle
 10
41.492738000
 20
-86.930808000
 30
0.000000000
 40
2.658773638
100
AcDbArc
 50
0.090541247
 51
44.392985695
  0
ARC
  5
A2D
330
A02
100
AcDbEntity
  8
Sketch001
100
AcDbCircle
 10
41.448138000
 20
-86.260058000
 30
0.000000000
 40
2.784330794
100
AcDbArc
 50
-75.013197990
 51
-13.850700384
  0
ARC
  5
A2E
330
A02
100
AcDbEntity
  8
Sketch001
100
AcDbCircle
 10
35.482316000
 20
-74.060682000
 30
0.000000000
 40
16.321236176
100
AcDbArc
 50
-80.200988292
 51
-65.817742736
  0
ARC
  5
A2F
330
A02
100
AcDbEntity
  8
Sketch001
100
AcDbCircle
 10
31.830218000
 20
-49.627974000
 30
0.000000000
 40
41.022865933
100
AcDbArc
 50
-93.757799877
 51
-80.982380119
  0
ARC
  5
A30
330
A02
100
AcDbEntity
  8
Sketch001
100
AcDbCircle
 10
45.796642000
 20
253.600830000
 30
0.000000000
 40
344.566226744
100
AcDbArc
 50
-94.933279920
 51
-92.770539542
  0
ARC
  5
A31
330
A02
100
AcDbEntity
  8
Sketch001
100
AcDbCircle
 10
20.172312000
 20
-19.517410000
 30
0.000000000
 40
70.285850640
100
AcDbArc
 50
-100.564366645
 51
-93.268092861
  0
ARC
  5
A32
330
A02
100
AcDbEntity
  8
Sketch001
100
AcDbCircle
 10
7.496574000
 20
-84.006820000
 30
0.000000000
 40
4.609871858
100
AcDbArc
 50
-113.766111661
 51
-92.616832472
  0
ARC
  5
A33
330
A02
100
AcDbEntity
  8
Sketch001
100
AcDbCircle
 10
6.249442000
 20
-87.108284000
 30
0.000000000
 40
1.273451495
100
AcDbArc
 50
-177.593556457
 51
-118.655063026
  0
LINE
  5
A34
330
A02
100
AcDbEntity
  8
Sketch001
100
AcDbLine
 10
4.977113544
 20
-87.161753702
 30
0.000000000
 11
4.251666301
 21
-80.429220247
 31
0.000000000
  0
ARC
  5
A35
330
A02
100
AcDbEntity
  8
Sketch001
100
AcDbCircle
 10
-49.363570000
 20
-84.039644000
 30
0.000000000
 40
53.736660887
100
AcDbArc
 50
3.852453631
 51
9.798651185
  0
ARC
  5
A36
330
A02
100
AcDbEntity
  8
Sketch001
100
AcDbCircle
 10
-114.845180000
 20
-85.748112000
 30
0.000000000
 40
118.930650336
100
AcDbArc
 50
5.236146683
 51
8.159090867
  0
ARC
  5
A37
330
A02
100
AcDbEntity
  8
Sketch001
100
AcDbCircle
 10
-33.105600000
 20
-77.040168000
 30
0.000000000
 40
36.903189609
100
AcDbArc
 50
12.792213013
 51
22.738460608
  0
ARC
  5
A38
330
A02
100
AcDbEntity
  8
Sketch001
100
AcDbCircle
 10
-60.720398000
 20
-82.132450000
 30
0.000000000
 40
64.617084172
100
AcDbArc
 50
17.430807577
 51
23.007807748
  0
ARC
  5
A39
330
A02
100
AcDbEntity
  8
Sketch001
100
AcDbCircle
 10
-27.407114000
 20
-65.146642000
 30
0.000000000
 40
27.439587967
100
AcDbArc
 50
17.541516219
 51
21.512044018
  0
ARC
  5
A3A
330
A02
100
AcDbEntity
  8
Sketch001
100
AcDbCircle
 10
-4.084390000
 20
-56.199528000
 30
0.000000000
 40
2.471222308
100
AcDbArc
 50
26.817572474
 51
68.990542683
  0
ARC
  5
A3B
330
A02
100
AcDbEntity
  8
Sketch001
100
AcDbCircle
 10
-4.542948000
 20
-56.650312000
 30
0.000000000
 40
3.068034681
100
AcDbArc
 50
64.008149066
 51
91.041454157
  0
ARC
  5
A3C
330
A02
100
AcDbEntity
  8
Sketch001
100
AcDbCircle
 10
-4.439088000
 20
-52.483366000
 30
0.000000000
 40
1.110945572
100
AcDbArc
 50
-168.600120926
 51
-98.261022166
  0
LINE
  5
A3D
330
A02
100
AcDbEntity
  8
Sketch001
100
AcDbLine
 10
-5.528116384
 20
-52.702950249
 30
0.000000000
 11
-5.702150000
 21
-51.050588000
 31
0.000000000
  0
LINE
  5
A3E
330
A02
100
AcDbEntity
  8
Sketch001
100
AcDbLine
 10
-5.702150000
 20
-51.050588000
 30
0.000000000
 11
-6.177722343
 21
-48.289206581
 31
0.000000000
  0
ARC
  5
A3F
330
A02
100
AcDbEntity
  8
Sketch001
100
AcDbCircle
 10
-7.246516000
 20
-48.569680000
 30
0.000000000
 40
1.104982000
100
AcDbArc
 50
14.704045080
 51
63.985119067
  0
LINE
  5
A40
330
A02
100
AcDbEntity
  8
Sketch001
100
AcDbLine
 10
-6.761865847
 20
-47.576654598
 30
0.000000000
 11
-36.132047739
 21
-50.036153678
 31
0.000000000
  0
ARC
  5
A41
330
A02
100
AcDbEntity
  8
Sketch001
100
AcDbCircle
 10
-37.753892000
 20
-46.720894000
 30
0.000000000
 40
3.690708000
100
AcDbArc
 50
-115.809283828
 51
-63.931851592
  0
LINE
  5
A42
330
A02
100
AcDbEntity
  8
Sketch001
100
AcDbLine
 10
-39.360741286
 20
-50.043447373
 30
0.000000000
 11
-41.369008000
 21
-50.043447373
 31
0.000000000
  0
LINE
  5
A43
330
A02
100
AcDbEntity
  8
Sketch001
100
AcDbLine
 10
-41.369008000
 20
-50.043447373
 30
0.000000000
 11
-44.317039320
 21
-77.048001298
 31
0.000000000
  0
ARC
  5
A44
330
A02
100
AcDbEntity
  8
Sketch001
100
AcDbCircle
 10
-45.825293000
 20
-76.602532000
 30
0.000000000
 40
1.572664000
100
AcDbArc
 50
-46.423521880
 51
-16.454735223
  0
ARC
  5
A45
330
A02
100
AcDbEntity
  8
Sketch001
100
AcDbCircle
 10
-46.150567939
 20
-75.528632000
 30
0.000000000
 40
2.623856040
100
AcDbArc
 50
-130.587527953
 51
-57.511642386
  0
ARC
  5
A46
330
A02
100
AcDbEntity
  8
Sketch001
100
AcDbCircle
 10
-46.448364000
 20
-76.597318000
 30
0.000000000
 40
1.685155298
100
AcDbArc
 50
179.531164682
 51
-146.752235590
  0
LINE
  5
A47
330
A02
100
AcDbEntity
  8
Sketch001
100
AcDbLine
 10
-48.133462882
 20
-76.583529000
 30
0.000000000
 11
-47.737963015
 21
-71.023462490
 31
0.000000000
  0
ARC
  5
A48
330
A02
100
AcDbEntity
  8
Sketch001
100
AcDbCircle
 10
102.881356000
 20
1980.859886000
 30
0.000000000
 40
2057.404057319
100
AcDbArc
 50
-95.222795659
 51
-94.198289826
  0
ARC
  5
A49
330
A02
100
AcDbEntity
  8
Sketch001
100
AcDbCircle
 10
-84.205171880
 20
-68.636751000
 30
0.000000000
 40
0.664116000
100
AcDbArc
 50
107.208997836
 51
171.862472171
  0
LINE
  5
A4A
330
A02
100
AcDbEntity
  8
Sketch001
100
AcDbLine
 10
-84.862601000
 20
-68.542745612
 30
0.000000000
 11
-84.874986387
 21
-68.864942465
 31
0.000000000
  0
ARC
  5
A4B
330
A02
100
AcDbEntity
  8
Sketch001
100
AcDbCircle
 10
-85.530364000
 20
-66.542124000
 30
0.000000000
 40
2.413504804
100
AcDbArc
 50
-106.799934773
 51
-74.243715490
  0
LINE
  5
A4C
330
A02
100
AcDbEntity
  8
Sketch001
100
AcDbLine
 10
-86.227941000
 20
-68.852620000
 30
0.000000000
 11
-86.249922303
 21
-68.395269987
 31
0.000000000
  0
ARC
  5
A4D
330
A02
100
AcDbEntity
  8
Sketch001
100
AcDbCircle
 10
-86.772433993
 20
-68.264141942
 30
0.000000000
 40
0.538714238
100
AcDbArc
 50
-14.087846571
 51
91.618741335
  0
ARC
  5
A4E
330
A02
100
AcDbEntity
  8
Sketch001
100
AcDbCircle
 10
10.464316000
 20
813.271654000
 30
0.000000000
 40
886.348792541
100
AcDbArc
 50
-99.147270080
 51
-96.299290712
  0
ARC
  5
A4F
330
A02
100
AcDbEntity
  8
Sketch001
100
AcDbCircle
 10
-130.459206099
 20
-62.235192000
 30
0.000000000
 40
0.430152000
100
AcDbArc
 50
87.560728055
 51
176.681448298
  0
LINE
  5
A50
330
A02
100
AcDbEntity
  8
Sketch001
100
AcDbLine
 10
-130.987214756
 20
-63.093530141
 30
0.000000000
 11
-130.888636788
 21
-62.210291673
 31
0.000000000
  0
ARC
  5
A51
330
A02
100
AcDbEntity
  8
Sketch001
100
AcDbCircle
 10
-131.240861766
 20
-63.103673991
 30
0.000000000
 40
0.253849765
100
AcDbArc
 50
-92.291142507
 51
2.290152003
  0
LINE
  5
A52
330
A02
100
AcDbEntity
  8
Sketch001
100
AcDbLine
 10
-132.082961293
 20
-63.245716075
 30
0.000000000
 11
-131.251010000
 21
-63.357320825
 31
0.000000000
  0
ARC
  5
A53
330
A02
100
AcDbEntity
  8
Sketch001
100
AcDbCircle
 10
-131.583060000
 20
-62.911290000
 30
0.000000000
 40
0.601450000
100
AcDbArc
 50
178.996598861
 51
-146.218102072
  0
LINE
  5
A54
330
A02
100
AcDbEntity
  8
Sketch001
100
AcDbLine
 10
-132.184417772
 20
-62.900757553
 30
0.000000000
 11
-132.113495794
 21
-61.997905338
 31
0.000000000
  0
ARC
  5
A55
330
A02
100
AcDbEntity
  8
Sketch001
100
AcDbCircle
 10
-132.357049481
 20
-61.977613348
 30
0.000000000
 40
0.244397552
100
AcDbArc
 50
-4.762671976
 51
94.763706672
  0
ARC
  5
A56
330
A02
100
AcDbEntity
  8
Sketch001
100
AcDbCircle
 10
111.627760000
 20
1346.825472000
 30
0.000000000
 40
1429.537843835
100
AcDbArc
 50
-101.792787115
 51
-99.827829346
  0
ARC
  5
A57
330
A02
100
AcDbEntity
  8
Sketch001
100
AcDbCircle
 10
-181.406700000
 20
-52.633790757
 30
0.000000000
 40
0.880860000
100
AcDbArc
 50
163.917438313
 51
6.158361965
  0
ARC
  5
A58
330
A02
100
AcDbEntity
  8
Sketch001
100
AcDbCircle
 10
182.361110000
 20
1296.751018000
 30
0.000000000
 40
1397.542266242
100
AcDbArc
 50
-106.725381658
 51
-105.123277104
  0
ARC
  5
A59
330
A02
100
AcDbEntity
  8
Sketch001
100
AcDbCircle
 10
-220.871596137
 20
-41.142535000
 30
0.000000000
 40
1.166519917
100
AcDbArc
 50
173.197383859
 51
-26.792990867
  0
ARC
  5
A5A
330
A02
100
AcDbEntity
  8
Sketch001
100
AcDbCircle
 10
-9.564486000
 20
665.370092000
 30
0.000000000
 40
737.635697606
100
AcDbArc
 50
-109.867539394
 51
-106.740393005
  0
ARC
  5
A5B
330
A02
100
AcDbEntity
  8
Sketch001
100
AcDbCircle
 10
-261.237650000
 20
-28.194380000
 30
0.000000000
 40
1.004158000
100
AcDbArc
 50
156.072779065
 51
-9.616713121
  0
ARC
  5
A5C
330
A02
100
AcDbEntity
  8
Sketch001
100
AcDbCircle
 10
-187.082954000
 20
168.015432000
 30
0.000000000
 40
209.701043026
100
AcDbArc
 50
-116.752765313
 51
-110.977298332
  0
ARC
  5
A5D
330
A02
100
AcDbEntity
  8
Sketch001
100
AcDbCircle
 10
-450.817012000
 20
-225.776602000
 30
0.000000000
 40
267.083508111
100
AcDbArc
 50
50.651935114
 51
53.261754281
  0
ARC
  5
A5E
330
A02
100
AcDbEntity
  8
Sketch001
100
AcDbCircle
 10
-291.744528468
 20
-10.840980143
 30
0.000000000
 40
1.132707472
100
AcDbArc
 50
162.363927822
 51
-52.710415879
  0
LINE
  5
A5F
330
A02
100
AcDbEntity
  8
Sketch001
100
AcDbLine
 10
-7.503060000
 20
-44.688638000
 30
0.000000000
 11
-36.490674862
 21
-46.403775203
 31
0.000000000
  0
ARC
  5
A60
330
A02
100
AcDbEntity
  8
Sketch001
100
AcDbCircle
 10
-37.297272125
 20
-49.256120000
 30
0.000000000
 40
2.964198034
100
AcDbArc
 50
74.209949675
 51
135.814775831
  0
LINE
  5
A61
330
A02
100
AcDbEntity
  8
Sketch001
100
AcDbLine
 10
-39.422870000
 20
-47.190132668
 30
0.000000000
 11
-41.073456000
 21
-47.190132668
 31
0.000000000
  0
LINE
  5
A62
330
A02
100
AcDbEntity
  8
Sketch001
100
AcDbLine
 10
-41.073456000
 20
-47.190132668
 30
0.000000000
 11
-35.907344000
 21
3.124508000
 31
0.000000000
  0
LINE
  5
A63
330
A02
100
AcDbEntity
  8
Sketch001
100
AcDbLine
 10
-35.907344000
 20
3.124508000
 30
0.000000000
 11
0.834255455
 21
-0.356678690
 31
0.000000000
  0
ARC
  5
A64
330
A02
100
AcDbEntity
  8
Sketch001
100
AcDbCircle
 10
2848.212918000
 20
-16.170196000
 30
0.000000000
 40
2847.422574056
100
AcDbArc
 50
179.681799088
 51
-179.412526493
  0
LINE
  5
A65
330
A02
100
AcDbEntity
  8
Sketch001
100
AcDbLine
 10
0.940019000
 20
-45.365296027
 30
0.000000000
 11
-1.495356597
 21
-45.365296027
 31
0.000000000
  0
ARC
  5
A66
330
A02
100
AcDbEntity
  8
Sketch001
100
AcDbCircle
 10
-4.992546000
 20
-52.408156000
 30
0.000000000
 40
7.863346000
100
AcDbArc
 50
63.592929456
 51
91.199239237
  0
LINE
  5
A67
330
A02
100
AcDbEntity
  8
Sketch001
100
AcDbLine
 10
-5.157119108
 20
-44.546532376
 30
0.000000000
 11
-9.461754444
 21
-9.833706723
 31
0.000000000
  0
ARC
  5
A68
330
A02
100
AcDbEntity
  8
Sketch001
100
AcDbCircle
 10
-10.464140000
 20
-9.891496000
 30
0.000000000
 40
1.004050000
100
AcDbArc
 50
3.299549351
 51
-170.334411331
  0
LINE
  5
A69
330
A02
100
AcDbEntity
  8
Sketch001
100
AcDbLine
 10
-7.503060000
 20
-44.688638000
 30
0.000000000
 11
-11.453936993
 21
-10.060073329
 31
0.000000000
  0
LINE
  5
A6A
330
A02
100
AcDbEntity
  8
Sketch001
100
AcDbLine
 10
-35.622028000
 20
4.407936000
 30
0.000000000
 11
1.112386252
 21
1.034366000
 31
0.000000000
  0
LINE
  5
A6B
330
A02
100
AcDbEntity
  8
Sketch001
100
AcDbLine
 10
1.112386252
 20
1.034366000
 30
0.000000000
 11
1.112386252
 21
6.442298734
 31
0.000000000
  0
ARC
  5
A6C
330
A02
100
AcDbEntity
  8
Sketch001
100
AcDbCircle
 10
-0.549120000
 20
12.001892000
 30
0.000000000
 40
5.802558084
100
AcDbArc
 50
-117.473725794
 51
-73.361018273
  0
LINE
  5
A6D
330
A02
100
AcDbEntity
  8
Sketch001
100
AcDbLine
 10
-3.226082631
 20
6.853732000
 30
0.000000000
 11
-35.214256000
 21
9.153606000
 31
0.000000000
  0
LINE
  5
A6E
330
A02
100
AcDbEntity
  8
Sketch001
100
AcDbLine
 10
-35.214256000
 20
9.153606000
 30
0.000000000
 11
-35.622028000
 21
4.407936000
 31
0.000000000
  0
ARC
  5
A6F
330
A02
100
AcDbEntity
  8
Sketch001
100
AcDbCircle
 10
-1.240352000
 20
2.887152000
 30
0.000000000
 40
5.292497636
100
AcDbArc
 50
64.816718389
 51
113.000851790
  0
LINE
  5
A70
330
A02
100
AcDbEntity
  8
Sketch001
100
AcDbLine
 10
-3.308368000
 20
7.758891017
 30
0.000000000
 11
-20.210060000
 21
9.219248000
 31
0.000000000
  0
LINE
  5
A71
330
A02
100
AcDbEntity
  8
Sketch001
100
AcDbLine
 10
-20.210060000
 20
9.219248000
 30
0.000000000
 11
-22.248314000
 21
23.211534000
 31
0.000000000
  0
LINE
  5
A72
330
A02
100
AcDbEntity
  8
Sketch001
100
AcDbLine
 10
-22.248314000
 20
23.211534000
 30
0.000000000
 11
0.616998179
 21
24.261075665
 31
0.000000000
  0
ARC
  5
A73
330
A02
100
AcDbEntity
  8
Sketch001
100
AcDbCircle
 10
-156.341526000
 20
12.228740000
 30
0.000000000
 40
157.419044000
100
AcDbArc
 50
-1.657070940
 51
4.383682490
  0
ARC
  5
A74
330
A02
100
AcDbEntity
  8
Sketch001
100
AcDbCircle
 10
-4.051186000
 20
-44.033760000
 30
0.000000000
 40
3.993315809
100
AcDbArc
 50
-104.297242219
 51
-44.810018150
  0
LINE
  5
A75
330
A02
100
AcDbEntity
  8
Sketch001
100
AcDbLine
 10
-1.218138000
 20
-46.848082331
 30
0.000000000
 11
0.945314806
 21
-46.848082331
 31
0.000000000
  0
LINE
  5
A76
330
A02
100
AcDbEntity
  8
Sketch001
100
AcDbLine
 10
0.945314806
 20
-46.848082331
 30
0.000000000
 11
0.945314806
 21
-48.710832347
 31
0.000000000
  0
ARC
  5
A77
330
A02
100
AcDbEntity
  8
Sketch001
100
AcDbCircle
 10
2.382856000
 20
-47.607990000
 30
0.000000000
 40
1.811846000
100
AcDbArc
 50
-142.505564743
 51
-36.403234888
  0
LINE
  5
A78
330
A02
100
AcDbEntity
  8
Sketch001
100
AcDbLine
 10
3.841138901
 20
-48.683255972
 30
0.000000000
 11
3.841138901
 21
-45.318586117
 31
0.000000000
  0
LINE
  5
A79
330
A02
100
AcDbEntity
  8
Sketch001
100
AcDbLine
 10
3.841138901
 20
-45.318586117
 30
0.000000000
 11
7.316126455
 21
-45.318586117
 31
0.000000000
  0
ARC
  5
A7A
330
A02
100
AcDbEntity
  8
Sketch001
100
AcDbCircle
 10
5.068996000
 20
-48.851428000
 30
0.000000000
 40
4.186952000
100
AcDbArc
 50
3.813774425
 51
57.540833562
  0
LINE
  5
A7B
330
A02
100
AcDbEntity
  8
Sketch001
100
AcDbLine
 10
9.246676022
 20
-48.572938000
 30
0.000000000
 11
9.246676022
 21
-79.206416000
 31
0.000000000
  0
LINE
  5
A7C
330
A02
100
AcDbEntity
  8
Sketch001
100
AcDbLine
 10
9.246676022
 20
-79.206416000
 30
0.000000000
 11
7.029481756
 21
-79.066612030
 31
0.000000000
  0
ARC
  5
A7D
330
A02
100
AcDbEntity
  8
Sketch001
100
AcDbCircle
 10
7.901716000
 20
-77.326250000
 30
0.000000000
 40
1.946703000
100
AcDbArc
 50
-176.000257948
 51
-116.619102376
  0
ARC
  5
A7E
330
A02
100
AcDbEntity
  8
Sketch001
100
AcDbCircle
 10
-46.965468000
 20
-81.655204000
 30
0.000000000
 40
53.091071066
100
AcDbArc
 50
4.529976210
 51
15.181147016
  0
ARC
  5
A7F
330
A02
100
AcDbEntity
  8
Sketch001
100
AcDbCircle
 10
-61.707186000
 20
-83.864860000
 30
0.000000000
 40
67.918972129
100
AcDbArc
 50
13.723356379
 51
25.733881494
  0
ARC
  5
A80
330
A02
100
AcDbEntity
  8
Sketch001
100
AcDbCircle
 10
-5.353068000
 20
-57.368096000
 30
0.000000000
 40
5.681090820
100
AcDbArc
 50
31.793079151
 51
61.695602011
  0
ARC
  5
A81
330
A02
100
AcDbEntity
  8
Sketch001
100
AcDbCircle
 10
-10.893816000
 20
-70.384600000
 30
0.000000000
 40
19.810808202
100
AcDbArc
 50
65.439400810
 51
70.743156465
  0
ARC
  5
A82
330
A02
100
AcDbEntity
  8
Sketch001
100
AcDbCircle
 10
8.035170000
 20
-47.510764000
 30
0.000000000
 40
13.078409735
100
AcDbArc
 50
-178.279654530
 51
-161.400142285
  0
ARC
  5
A83
330
A02
100
AcDbEntity
  8
Sketch001
100
AcDbCircle
 10
5.483740000
 20
-32.864102000
 30
0.000000000
 40
9.457984867
100
AcDbArc
 50
-99.511957846
 51
-73.239035070
  0
ARC
  5
A84
330
A02
100
AcDbEntity
  8
Sketch001
100
AcDbCircle
 10
7.518202000
 20
-39.244120000
 30
0.000000000
 40
2.764434039
100
AcDbArc
 50
-75.481414902
 51
-1.438017109
  0
ARC
  5
A85
330
A02
100
AcDbEntity
  8
Sketch001
100
AcDbCircle
 10
-374.611272000
 20
-8.755492000
 30
0.000000000
 40
386.104185137
100
AcDbArc
 50
-4.539390322
 51
4.277341481
  0
ARC
  5
A86
330
A02
100
AcDbEntity
  8
Sketch001
100
AcDbCircle
 10
5.220808000
 20
18.662050000
 30
0.000000000
 40
5.376749959
100
AcDbArc
 50
14.869744590
 51
45.619473052
  0
LINE
  5
A87
330
A02
100
AcDbEntity
  8
Sketch001
100
AcDbLine
 10
8.981417000
 20
22.504869287
 30
0.000000000
 11
3.920775429
 21
22.504869287
 31
0.000000000
  0
LINE
  5
A88
330
A02
100
AcDbEntity
  8
Sketch001
100
AcDbLine
 10
3.920775429
 20
22.504869287
 30
0.000000000
 11
3.920775429
 21
-42.192050301
 31
0.000000000
  0
ENDSEC
  0
SECTION
  2
OBJECTS
  0
DICTIONARY
  5
F000
330
0
100
AcDbDictionary
  3
ACAD_GROUP
350
F001
  0
DICTIONARY
  5
F001
330
F000
100
AcDbDictionary
  0
ENDSEC
  0
EOF